<svg width="498" height="704" viewBox="0 0 498 704" fill="none" xmlns="http://www.w3.org/2000/svg">
<g filter="url(#filter0_f)">
<path d="M21.3395 90.9998L10 79.6588L79.6526 9.99995L90.9923 21.3409L21.3395 90.9998Z" fill="black"/>
<path d="M10 21.3409L21.3395 9.99995L90.9923 79.6588L79.6526 90.9998L10 21.3409Z" fill="black"/>
</g>
<g filter="url(#filter1_f)">
<circle cx="434.5" cy="250.5" r="48.5" stroke="#FEDD5A" stroke-width="22"/>
</g>
<g filter="url(#filter2_f)">
<path d="M62.4446 452.793C62.9293 449.582 65.9241 447.393 69.1149 447.875C72.3162 448.358 74.5082 451.329 74.0236 454.541C73.5422 457.731 70.5678 459.944 67.3665 459.461C64.1758 458.98 61.9632 455.984 62.4446 452.793ZM91.9524 457.246C92.437 454.034 95.4029 451.841 98.5883 452.322C101.813 452.808 104.016 455.781 103.531 458.993C103.05 462.184 100.065 464.395 96.84 463.909C93.6545 463.428 91.4709 460.437 91.9524 457.246ZM121.431 461.694C121.916 458.479 124.887 456.29 128.104 456.775C131.284 457.255 133.503 460.228 133.018 463.442C132.537 466.633 129.536 468.842 126.356 468.362C123.139 467.877 120.95 464.885 121.431 461.694ZM150.92 466.143C151.405 462.929 154.366 460.738 157.583 461.223C160.768 461.704 162.984 464.676 162.499 467.891C162.018 471.081 159.02 473.291 155.834 472.81C152.617 472.325 150.439 469.334 150.92 466.143ZM180.399 470.591C180.884 467.377 183.876 465.191 187.059 465.671C190.281 466.157 192.471 469.125 191.986 472.34C191.505 475.531 188.533 477.744 185.311 477.258C182.128 476.778 179.918 473.782 180.399 470.591ZM209.87 475.038C210.355 471.824 213.357 469.639 216.546 470.12C219.757 470.605 221.952 473.574 221.467 476.788C220.986 479.979 218.009 482.192 214.797 481.707C211.609 481.226 209.389 478.229 209.87 475.038Z" fill="black"/>
<path d="M244.273 486.154C242.767 485.927 241.36 485.1 240.453 483.822C239.537 482.6 239.123 480.997 239.351 479.486C239.578 477.983 240.446 476.577 241.684 475.663C244.158 473.817 248.06 474.406 249.889 476.874C250.788 478.137 251.199 479.737 250.972 481.24C250.744 482.751 249.879 484.16 248.654 485.06C247.415 486.013 245.81 486.386 244.273 486.154Z" fill="black"/>
<path d="M57.6339 484.677C58.1189 481.462 61.1126 479.282 64.3033 479.763C67.5046 480.246 69.7005 483.21 69.2155 486.424C68.7345 489.612 65.7563 491.833 62.555 491.35C59.3643 490.869 57.1529 487.865 57.6339 484.677ZM87.1417 489.129C87.6267 485.915 90.5966 483.731 93.7768 484.21C97.0018 484.697 99.1793 487.658 98.6942 490.872C98.2132 494.06 95.2535 496.284 92.0285 495.797C88.8483 495.317 86.6606 492.317 87.1417 489.129ZM116.62 493.577C117.105 490.363 120.075 488.179 123.292 488.664C126.478 489.145 128.695 492.111 128.21 495.326C127.73 498.509 124.73 500.729 121.545 500.248C118.327 499.763 116.14 496.76 116.62 493.577ZM146.11 498.027C146.595 494.812 149.554 492.627 152.771 493.112C155.957 493.593 158.174 496.559 157.689 499.774C157.208 502.957 154.209 505.177 151.023 504.696C147.806 504.211 145.629 501.21 146.11 498.027ZM175.591 502.475C176.076 499.261 179.065 497.079 182.247 497.56C185.438 498.041 187.66 501.009 187.175 504.223C186.695 507.406 183.69 509.625 180.499 509.144C177.317 508.664 175.111 505.658 175.591 502.475ZM205.059 506.922C205.544 503.707 208.546 501.528 211.734 502.009C214.946 502.493 217.142 505.457 216.657 508.672C216.176 511.854 213.198 514.078 209.986 513.593C206.798 513.112 204.579 510.104 205.059 506.922Z" fill="black"/>
<path d="M239.467 518.042C237.956 517.814 236.554 516.955 235.639 515.725C234.731 514.482 234.312 512.879 234.54 511.37C234.771 509.838 235.64 508.456 236.877 507.516C239.375 505.708 243.22 506.288 245.084 508.754C245.977 510.016 246.392 511.592 246.161 513.124C245.934 514.632 245.068 516.042 243.845 516.963C242.608 517.868 241.004 518.274 239.467 518.042Z" fill="black"/>
<path d="M52.9749 515.554C53.4552 512.371 56.4544 510.153 59.6451 510.635C62.8464 511.118 65.0368 514.118 64.5565 517.301C64.0715 520.516 61.0981 522.705 57.8968 522.222C54.7061 521.74 52.4899 518.768 52.9749 515.554ZM82.4563 520.002C82.9365 516.819 85.9384 514.602 89.1186 515.082C92.3436 515.569 94.5155 518.566 94.0352 521.749C93.5502 524.964 90.5953 527.155 87.3703 526.669C84.1901 526.189 81.9712 523.217 82.4563 520.002ZM111.961 524.454C112.442 521.271 115.418 519.045 118.635 519.53C121.821 520.011 124.031 523.02 123.551 526.203C123.066 529.417 120.071 531.603 116.886 531.122C113.669 530.637 111.476 527.669 111.961 524.454ZM141.451 528.904C141.931 525.721 144.897 523.493 148.114 523.978C151.299 524.459 153.51 527.468 153.03 530.651C152.545 533.865 149.55 536.051 146.365 535.57C143.148 535.085 140.966 532.118 141.451 528.904ZM170.932 533.352C171.412 530.169 174.407 527.946 177.59 528.426C180.781 528.907 182.997 531.917 182.516 535.1C182.031 538.315 179.032 540.499 175.841 540.018C172.658 539.538 170.447 536.567 170.932 533.352ZM200.4 537.799C200.881 534.616 203.888 532.394 207.077 532.875C210.288 533.36 212.478 536.366 211.998 539.548C211.513 542.763 208.539 544.952 205.327 544.467C202.139 543.986 199.915 541.013 200.4 537.799Z" fill="black"/>
<path d="M234.808 548.915C233.297 548.687 231.892 547.852 230.978 546.617C230.073 545.353 229.649 543.784 229.881 542.247C230.108 540.744 230.982 539.333 232.214 538.424C234.713 536.608 238.558 537.188 240.42 539.662C241.319 540.893 241.705 542.494 241.479 543.997C241.247 545.534 240.406 546.942 239.184 547.855C237.914 548.761 236.346 549.147 234.808 548.915Z" fill="black"/>
<path d="M48.1626 547.445C48.6492 544.22 51.6421 542.045 54.8328 542.526C58.0341 543.009 60.2308 545.968 59.7442 549.193C59.2648 552.37 56.2866 554.591 53.0853 554.108C49.8946 553.626 47.6831 550.623 48.1626 547.445ZM77.644 551.893C78.1306 548.668 81.1261 546.494 84.3063 546.973C87.5314 547.46 89.7359 550.42 89.2493 553.645C88.7698 556.822 85.7838 559.042 82.5588 558.555C79.3786 558.075 77.1645 555.071 77.644 551.893ZM107.149 556.345C107.636 553.12 110.605 550.942 113.822 551.427C117.007 551.908 119.225 554.869 118.739 558.094C118.259 561.272 115.26 563.489 112.074 563.009C108.857 562.523 106.67 559.523 107.149 556.345ZM136.638 560.795C137.125 557.57 140.084 555.39 143.301 555.875C146.486 556.356 148.704 559.317 148.217 562.542C147.738 565.72 144.739 567.937 141.553 567.457C138.336 566.971 136.159 563.973 136.638 560.795ZM166.12 565.243C166.606 562.018 169.57 559.839 172.777 560.323C175.968 560.804 178.191 563.766 177.704 566.991C177.225 570.169 174.22 572.386 171.029 571.904C167.823 571.42 165.64 568.421 166.12 565.243ZM195.588 569.69C196.075 566.465 199.075 564.291 202.263 564.772C205.475 565.256 207.672 568.215 207.185 571.44C206.706 574.617 203.728 576.838 200.516 576.353C197.328 575.872 195.109 572.867 195.588 569.69Z" fill="black"/>
<path d="M229.997 580.802C228.486 580.574 227.079 579.744 226.166 578.508C225.262 577.242 224.843 575.636 225.069 574.138C225.302 572.598 226.171 571.217 227.403 570.31C229.906 568.463 233.751 569.043 235.614 571.517C236.508 572.776 236.919 574.378 236.69 575.892C236.464 577.39 235.599 578.802 234.377 579.712C233.102 580.653 231.534 581.034 229.997 580.802Z" fill="black"/>
<path d="M43.5903 577.748C44.077 574.523 47.0698 572.348 50.2606 572.829C53.4619 573.312 55.6586 576.271 55.172 579.496C54.6925 582.673 51.7143 584.894 48.513 584.411C45.3223 583.93 43.1109 580.926 43.5903 577.748ZM73.0717 582.197C73.5583 578.972 76.5539 576.797 79.7341 577.277C82.9591 577.763 85.1637 580.723 84.677 583.948C84.1976 587.125 81.2115 589.345 77.9865 588.858C74.8063 588.378 72.5923 585.374 73.0717 582.197ZM102.577 586.649C103.063 583.424 106.033 581.245 109.25 581.73C112.435 582.211 114.653 585.172 114.166 588.397C113.687 591.575 110.688 593.793 107.502 593.312C104.285 592.826 102.097 589.826 102.577 586.649ZM132.066 591.098C132.553 587.873 135.511 585.693 138.728 586.178C141.914 586.659 144.132 589.62 143.645 592.845C143.166 596.023 140.166 598.241 136.981 597.76C133.764 597.274 131.587 594.276 132.066 591.098ZM161.548 595.547C162.034 592.322 164.998 590.142 168.205 590.626C171.395 591.107 173.618 594.07 173.132 597.295C172.652 600.472 169.648 602.689 166.457 602.207C163.25 601.724 161.068 598.724 161.548 595.547ZM191.016 599.993C191.502 596.768 194.503 594.594 197.691 595.075C200.903 595.56 203.1 598.518 202.613 601.743C202.134 604.921 199.156 607.141 195.944 606.657C192.756 606.176 190.536 603.171 191.016 599.993Z" fill="black"/>
<path d="M225.425 611.105C223.914 610.877 222.507 610.047 221.593 608.812C220.689 607.545 220.271 605.939 220.497 604.442C220.729 602.902 221.599 601.52 222.83 600.613C225.334 598.766 229.179 599.346 231.041 601.82C231.935 603.08 232.346 604.682 232.118 606.195C231.892 607.693 231.026 609.105 229.805 610.016C228.53 610.956 226.962 611.337 225.425 611.105Z" fill="black"/>
<path d="M39.0181 608.051C39.5047 604.826 42.4976 602.65 45.6883 603.132C48.8896 603.615 51.0863 606.573 50.5997 609.798C50.1202 612.976 47.1421 615.196 43.9408 614.713C40.75 614.232 38.5386 611.228 39.0181 608.051ZM68.4994 612.499C68.9861 609.274 71.9816 607.099 75.1618 607.579C78.3868 608.065 80.5914 611.025 80.1048 614.25C79.6253 617.428 76.6393 619.647 73.4143 619.161C70.2341 618.681 68.02 615.677 68.4994 612.499ZM98.0046 616.951C98.4912 613.726 101.46 611.547 104.677 612.032C107.863 612.513 110.081 615.475 109.594 618.7C109.115 621.877 106.115 624.095 102.93 623.614C99.7128 623.129 97.5251 620.129 98.0046 616.951ZM127.494 621.401C127.981 618.176 130.939 615.995 134.156 616.48C137.342 616.961 139.559 619.923 139.073 623.148C138.593 626.325 135.594 628.543 132.409 628.062C129.192 627.577 127.014 624.578 127.494 621.401ZM156.975 625.849C157.462 622.624 160.426 620.444 163.632 620.928C166.823 621.409 169.046 624.372 168.559 627.597C168.08 630.774 165.076 632.991 161.885 632.51C158.678 632.026 156.496 629.027 156.975 625.849ZM186.443 630.295C186.93 627.07 189.931 624.896 193.119 625.377C196.331 625.862 198.527 628.82 198.041 632.045C197.561 635.223 194.583 637.444 191.371 636.959C188.183 636.478 185.964 633.473 186.443 630.295Z" fill="black"/>
<path d="M220.853 641.408C219.342 641.18 217.935 640.35 217.021 639.114C216.117 637.848 215.699 636.242 215.925 634.744C216.157 633.204 217.026 631.822 218.258 630.916C220.762 629.068 224.606 629.648 226.469 632.122C227.363 633.382 227.774 634.984 227.546 636.497C227.32 637.995 226.454 639.407 225.232 640.318C223.958 641.258 222.39 641.639 220.853 641.408Z" fill="black"/>
<path d="M34.4458 638.352C34.9324 635.127 37.9253 632.952 41.116 633.433C44.3173 633.916 46.514 636.875 46.0274 640.1C45.548 643.277 42.5698 645.498 39.3685 645.015C36.1778 644.534 33.9663 641.53 34.4458 638.352ZM63.9272 642.801C64.4138 639.576 67.4093 637.401 70.5895 637.881C73.8146 638.367 76.0191 641.327 75.5325 644.552C75.0531 647.729 72.067 649.949 68.842 649.462C65.6618 648.982 63.4477 645.978 63.9272 642.801ZM93.4323 647.253C93.9189 644.028 96.8881 641.849 100.105 642.334C103.291 642.815 105.508 645.776 105.022 649.001C104.542 652.179 101.543 654.397 98.3576 653.916C95.1405 653.43 92.9528 650.43 93.4323 647.253ZM122.922 651.702C123.408 648.477 126.367 646.297 129.584 646.782C132.769 647.263 134.987 650.224 134.501 653.449C134.021 656.627 131.022 658.845 127.836 658.364C124.619 657.878 122.442 654.88 122.922 651.702ZM152.403 656.151C152.89 652.926 155.853 650.746 159.06 651.23C162.251 651.711 164.474 654.674 163.987 657.899C163.508 661.076 160.503 663.293 157.313 662.811C154.106 662.328 151.924 659.328 152.403 656.151ZM181.871 660.597C182.358 657.372 185.359 655.198 188.547 655.679C191.759 656.164 193.955 659.122 193.469 662.347C192.989 665.525 190.011 667.745 186.799 667.261C183.611 666.78 181.392 663.775 181.871 660.597Z" fill="black"/>
<path d="M216.28 671.709C214.769 671.481 213.363 670.651 212.449 669.416C211.545 668.149 211.126 666.543 211.352 665.046C211.585 663.506 212.454 662.124 213.686 661.217C216.19 659.37 220.034 659.95 221.897 662.424C222.791 663.684 223.202 665.286 222.973 666.799C222.747 668.297 221.882 669.709 220.66 670.62C219.385 671.56 217.818 671.941 216.28 671.709Z" fill="black"/>
<path d="M29.8735 668.655C30.3602 665.43 33.353 663.254 36.5438 663.736C39.7451 664.219 41.9418 667.177 41.4552 670.402C40.9757 673.58 37.9975 675.8 34.7962 675.317C31.6055 674.836 29.3941 671.832 29.8735 668.655ZM59.3549 673.103C59.8415 669.878 62.8371 667.703 66.0173 668.183C69.2423 668.669 71.4469 671.629 70.9602 674.854C70.4808 678.032 67.4947 680.251 64.2697 679.765C61.0895 679.285 58.8755 676.281 59.3549 673.103ZM88.86 677.555C89.3467 674.33 92.3158 672.151 95.5329 672.636C98.7184 673.117 100.936 676.079 100.45 679.304C99.9701 682.481 96.9708 684.699 93.7854 684.218C90.5683 683.733 88.3806 680.733 88.86 677.555ZM118.349 682.005C118.836 678.78 121.795 676.599 125.012 677.084C128.197 677.565 130.415 680.527 129.928 683.752C129.449 686.929 126.45 689.147 123.264 688.666C120.047 688.181 117.87 685.182 118.349 682.005ZM147.831 686.453C148.317 683.228 151.281 681.048 154.488 681.532C157.679 682.013 159.902 684.976 159.415 688.201C158.936 691.378 155.931 693.595 152.74 693.114C149.534 692.63 147.351 689.631 147.831 686.453ZM177.299 690.899C177.786 687.674 180.786 685.5 183.974 685.981C187.186 686.466 189.383 689.424 188.896 692.649C188.417 695.827 185.439 698.048 182.227 697.563C179.039 697.082 176.819 694.077 177.299 690.899Z" fill="black"/>
<path d="M211.708 702.012C210.197 701.784 208.79 700.954 207.876 699.718C206.973 698.452 206.554 696.846 206.78 695.348C207.012 693.808 207.882 692.426 209.113 691.52C211.617 689.672 215.462 690.253 217.325 692.726C218.219 693.986 218.63 695.588 218.401 697.101C218.175 698.599 217.309 700.011 216.088 700.922C214.813 701.862 213.245 702.243 211.708 702.012Z" fill="black"/>
</g>
<defs>
<filter id="filter0_f" x="0" y="0" width="100.992" height="101" filterUnits="userSpaceOnUse" color-interpolation-filters="sRGB">
<feFlood flood-opacity="0" result="BackgroundImageFix"/>
<feBlend mode="normal" in="SourceGraphic" in2="BackgroundImageFix" result="shape"/>
<feGaussianBlur stdDeviation="5" result="effect1_foregroundBlur"/>
</filter>
<filter id="filter1_f" x="371" y="187" width="127" height="127" filterUnits="userSpaceOnUse" color-interpolation-filters="sRGB">
<feFlood flood-opacity="0" result="BackgroundImageFix"/>
<feBlend mode="normal" in="SourceGraphic" in2="BackgroundImageFix" result="shape"/>
<feGaussianBlur stdDeviation="2" result="effect1_foregroundBlur"/>
</filter>
<filter id="filter2_f" x="28" y="446" width="224.834" height="257.89" filterUnits="userSpaceOnUse" color-interpolation-filters="sRGB">
<feFlood flood-opacity="0" result="BackgroundImageFix"/>
<feBlend mode="normal" in="SourceGraphic" in2="BackgroundImageFix" result="shape"/>
<feGaussianBlur stdDeviation="0.5" result="effect1_foregroundBlur"/>
</filter>
</defs>
</svg>
