<svg width="26" height="26" viewBox="0 0 26 26" fill="none" xmlns="http://www.w3.org/2000/svg">
<g clip-path="url(#clip0)">
<path d="M20.0886 0.583984H5.75519C2.80968 0.583984 0.421875 2.97179 0.421875 5.9173V20.2507C0.421875 23.1962 2.80968 25.584 5.75519 25.584H20.0886C23.0341 25.584 25.4219 23.1962 25.4219 20.2507V5.9173C25.4219 2.97179 23.0341 0.583984 20.0886 0.583984Z" fill="white"/>
<path fill-rule="evenodd" clip-rule="evenodd" d="M17.2541 10.9938C13.7691 10.9938 13.7647 14.4651 13.7647 14.4831C13.7647 14.4831 13.5266 17.9576 17.2541 17.9576C17.2541 17.9576 20.362 18.1351 20.362 15.5395H18.7661C18.7661 15.5395 18.8185 16.5168 17.3065 16.5168C17.3065 16.5168 15.7106 16.6231 15.7106 14.9377H20.4155C20.4155 14.9377 20.9332 10.9938 17.2541 10.9938V10.9938ZM15.6926 13.7219C15.6926 13.7219 15.887 12.3244 17.2887 12.3244C18.6957 12.3244 18.6725 13.7219 18.6725 13.7219H15.6926ZM11.7046 12.8283C11.7046 12.8283 13.0887 12.7275 13.0887 11.1C13.0887 9.47661 11.9568 8.68074 10.5192 8.68074L5.79199 8.68066V17.7676H10.5192C10.5192 17.7676 13.4067 17.8568 13.4067 15.0836C13.4067 15.0836 13.5306 12.8283 11.7046 12.8283V12.8283ZM7.87522 10.2946H10.5192C10.5192 10.2946 11.1608 10.2946 11.1608 11.2406C11.1608 12.1867 10.7848 12.3244 10.3555 12.3244H7.87521V10.2946H7.87522ZM10.387 16.1537H7.87522V13.7219H10.5192C10.5192 13.7219 11.4789 13.7135 11.4748 14.9734C11.4748 16.0349 10.7628 16.1451 10.387 16.1537ZM15.2988 9.21616V10.3343H19.0487V9.21616H15.2988Z" fill="black"/>
</g>
<defs>
<clipPath id="clip0">
<rect width="25" height="25" fill="white" transform="translate(0.421875 0.583984)"/>
</clipPath>
</defs>
</svg>
