<svg width="191" height="231" viewBox="0 0 191 231" fill="none" xmlns="http://www.w3.org/2000/svg">
<path d="M0.00038147 5.85798C0.00038147 2.60979 2.63519 -0.00109386 5.86206 -0.00109386C9.09958 -0.00109386 11.7104 2.60979 11.7104 5.85798C11.7104 9.08484 9.09958 11.7169 5.86206 11.7169C2.63519 11.7169 0.00038147 9.08484 0.00038147 5.85798ZM29.8422 5.85798C29.8422 2.60979 32.4476 -0.00109386 35.6692 -0.00109386C38.9307 -0.00109386 41.5522 2.60979 41.5522 5.85798C41.5522 9.08484 38.9307 11.7169 35.6692 11.7169C32.4476 11.7169 29.8422 9.08484 29.8422 5.85798ZM59.6546 5.85798C59.6546 2.60712 62.2654 -0.00109386 65.5189 -0.00109386C68.7351 -0.00109386 71.3726 2.60712 71.3726 5.85798C71.3726 9.08484 68.7351 11.7169 65.5189 11.7169C62.2654 11.7169 59.6546 9.08484 59.6546 5.85798ZM89.4777 5.85798C89.4777 2.60712 92.0778 -0.00109386 95.3314 -0.00109386C98.5529 -0.00109386 101.188 2.60712 101.188 5.85798C101.188 9.08484 98.5529 11.7169 95.3314 11.7169C92.0778 11.7169 89.4777 9.08484 89.4777 5.85798ZM119.29 5.85798C119.29 2.60712 121.922 -0.00109386 125.141 -0.00109386C128.4 -0.00109386 131.008 2.60712 131.008 5.85798C131.008 9.08484 128.4 11.7169 125.141 11.7169C121.922 11.7169 119.29 9.08484 119.29 5.85798ZM149.095 5.85798C149.095 2.60712 151.737 -0.00109386 154.962 -0.00109386C158.21 -0.00109386 160.823 2.60712 160.823 5.85798C160.823 9.08484 158.21 11.7169 154.962 11.7169C151.737 11.7169 149.095 9.08484 149.095 5.85798Z" fill="black"/>
<path d="M184.771 11.7169C183.248 11.7169 181.734 11.1089 180.646 9.98088C179.557 8.90881 178.909 7.38607 178.909 5.85798C178.909 4.33789 179.557 2.8178 180.646 1.72974C182.816 -0.465059 186.763 -0.465086 188.939 1.70304C190.017 2.81778 190.662 4.33789 190.662 5.85798C190.662 7.38607 190.017 8.90881 188.939 9.98088C187.857 11.1089 186.326 11.7169 184.771 11.7169Z" fill="black"/>
<path d="M0.00038147 38.1026C0.00038147 34.8517 2.63519 32.2488 5.86206 32.2488C9.09958 32.2488 11.7131 34.8517 11.7131 38.1026C11.7131 41.3268 9.09958 43.9669 5.86206 43.9669C2.63519 43.9669 0.00038147 41.3268 0.00038147 38.1026ZM29.8422 38.1026C29.8422 34.8517 32.453 32.2488 35.6692 32.2488C38.9307 32.2488 41.5255 34.8517 41.5255 38.1026C41.5255 41.3268 38.9307 43.9669 35.6692 43.9669C32.453 43.9669 29.8422 41.3268 29.8422 38.1026ZM59.6546 38.1026C59.6546 34.8517 62.2654 32.2488 65.5189 32.2488C68.7404 32.2488 71.3753 34.8517 71.3753 38.1026C71.3753 41.3214 68.7404 43.9643 65.5189 43.9643C62.2654 43.9643 59.6546 41.3214 59.6546 38.1026ZM89.4777 38.1026C89.4777 34.8517 92.0778 32.2488 95.3314 32.2488C98.5529 32.2488 101.188 34.8517 101.188 38.1026C101.188 41.3214 98.5529 43.9643 95.3314 43.9643C92.0778 43.9643 89.4777 41.3214 89.4777 38.1026ZM119.293 38.1026C119.293 34.8517 121.922 32.2488 125.141 32.2488C128.368 32.2488 131.008 34.8517 131.008 38.1026C131.008 41.3214 128.368 43.9643 125.141 43.9643C121.922 43.9643 119.293 41.3214 119.293 38.1026ZM149.095 38.1026C149.095 34.8517 151.737 32.2488 154.962 32.2488C158.21 32.2488 160.823 34.8517 160.823 38.1026C160.823 41.3214 158.21 43.9643 154.962 43.9643C151.737 43.9643 149.095 41.3214 149.095 38.1026Z" fill="black"/>
<path d="M184.776 43.9643C183.248 43.9643 181.734 43.3242 180.646 42.2441C179.563 41.1507 178.909 39.628 178.909 38.1026C178.909 36.5532 179.563 35.0571 180.646 33.9423C182.846 31.7822 186.734 31.7822 188.945 33.9423C190.017 35.0571 190.662 36.5532 190.662 38.1026C190.662 39.628 190.017 41.1507 188.945 42.2441C187.857 43.3242 186.331 43.9643 184.776 43.9643Z" fill="black"/>
<path d="M0.00038147 69.3286C0.00038147 66.1097 2.63519 63.4695 5.86206 63.4695C9.09958 63.4695 11.7131 66.1097 11.7131 69.3286C11.7131 72.5794 9.09958 75.1875 5.86206 75.1875C2.63519 75.1875 0.00038147 72.5794 0.00038147 69.3286ZM29.8155 69.3286C29.8155 66.1097 32.453 63.4695 35.6692 63.4695C38.9307 63.4695 41.5255 66.1097 41.5255 69.3286C41.5255 72.5794 38.9307 75.1875 35.6692 75.1875C32.453 75.1875 29.8155 72.5794 29.8155 69.3286ZM59.6546 69.3286C59.6546 66.1097 62.2654 63.4641 65.5189 63.4641C68.7404 63.4641 71.3753 66.1097 71.3753 69.3286C71.3753 72.5794 68.7404 75.1875 65.5189 75.1875C62.2654 75.1875 59.6546 72.5794 59.6546 69.3286ZM89.4777 69.3286C89.4777 66.1097 92.0778 63.4641 95.3314 63.4641C98.5529 63.4641 101.188 66.1097 101.188 69.3286C101.188 72.5794 98.5529 75.1875 95.3314 75.1875C92.0778 75.1875 89.4777 72.5794 89.4777 69.3286ZM119.293 69.3286C119.293 66.1097 121.922 63.4641 125.141 63.4641C128.368 63.4641 131.008 66.1097 131.008 69.3286C131.008 72.5794 128.368 75.1875 125.141 75.1875C121.922 75.1875 119.293 72.5794 119.293 69.3286ZM149.095 69.3286C149.095 66.1097 151.737 63.4641 154.962 63.4641C158.21 63.4641 160.823 66.1097 160.823 69.3286C160.823 72.5794 158.21 75.1875 154.962 75.1875C151.737 75.1875 149.095 72.5794 149.095 69.3286Z" fill="black"/>
<path d="M184.776 75.1875C183.248 75.1875 181.733 74.5715 180.645 73.4861C179.562 72.3714 178.909 70.8833 178.909 69.3286C178.909 67.8085 179.562 66.2831 180.645 65.2003C182.845 63.0322 186.733 63.0322 188.944 65.2003C190.016 66.2831 190.638 67.8085 190.638 69.3286C190.638 70.8833 190.016 72.4007 188.944 73.4861C187.824 74.5715 186.331 75.1875 184.776 75.1875Z" fill="black"/>
<path d="M0.00038147 101.581C0.00038147 98.3196 2.63521 95.7221 5.86206 95.7221C9.09959 95.7221 11.7131 98.3196 11.7131 101.581C11.7131 104.795 9.09959 107.435 5.86206 107.435C2.63521 107.435 0.00038147 104.795 0.00038147 101.581ZM29.8155 101.581C29.8155 98.3196 32.453 95.7221 35.6692 95.7221C38.9307 95.7221 41.5522 98.3196 41.5522 101.581C41.5522 104.795 38.9307 107.435 35.6692 107.435C32.453 107.435 29.8155 104.795 29.8155 101.581ZM59.6546 101.581C59.6546 98.3196 62.2654 95.7221 65.5189 95.7221C68.7404 95.7221 71.3753 98.3196 71.3753 101.581C71.3753 104.795 68.7404 107.435 65.5189 107.435C62.2654 107.435 59.6546 104.795 59.6546 101.581ZM89.4777 101.581C89.4777 98.3196 92.0778 95.7221 95.3314 95.7221C98.5529 95.7221 101.188 98.3196 101.188 101.581C101.188 104.795 98.5529 107.435 95.3314 107.435C92.0778 107.435 89.4777 104.795 89.4777 101.581ZM119.293 101.581C119.293 98.3196 121.898 95.7221 125.141 95.7221C128.368 95.7221 131.008 98.3196 131.008 101.581C131.008 104.795 128.368 107.435 125.141 107.435C121.898 107.435 119.293 104.795 119.293 101.581ZM149.095 101.581C149.095 98.3196 151.737 95.7221 154.962 95.7221C158.21 95.7221 160.823 98.3196 160.823 101.581C160.823 104.795 158.21 107.435 154.962 107.435C151.737 107.435 149.095 104.795 149.095 101.581Z" fill="black"/>
<path d="M184.776 107.435C183.248 107.435 181.734 106.824 180.646 105.739C179.563 104.621 178.909 103.096 178.909 101.581C178.909 100.024 179.563 98.5276 180.646 97.4476C182.846 95.2474 186.734 95.2474 188.945 97.4155C190.017 98.5276 190.662 100.05 190.662 101.581C190.662 103.096 190.017 104.621 188.945 105.704C187.825 106.824 186.331 107.435 184.776 107.435Z" fill="black"/>
<path d="M0.00038147 132.228C0.00038147 128.966 2.63521 126.368 5.86206 126.368C9.09959 126.368 11.7131 128.966 11.7131 132.228C11.7131 135.441 9.09959 138.081 5.86206 138.081C2.63521 138.081 0.00038147 135.441 0.00038147 132.228ZM29.8155 132.228C29.8155 128.966 32.453 126.368 35.6692 126.368C38.9307 126.368 41.5522 128.966 41.5522 132.228C41.5522 135.441 38.9307 138.081 35.6692 138.081C32.453 138.081 29.8155 135.441 29.8155 132.228ZM59.6546 132.228C59.6546 128.966 62.2654 126.368 65.5189 126.368C68.7404 126.368 71.3753 128.966 71.3753 132.228C71.3753 135.441 68.7404 138.081 65.5189 138.081C62.2654 138.081 59.6546 135.441 59.6546 132.228ZM89.4777 132.228C89.4777 128.966 92.0778 126.368 95.3314 126.368C98.5529 126.368 101.188 128.966 101.188 132.228C101.188 135.441 98.5529 138.081 95.3314 138.081C92.0778 138.081 89.4777 135.441 89.4777 132.228ZM119.293 132.228C119.293 128.966 121.898 126.368 125.141 126.368C128.368 126.368 131.008 128.966 131.008 132.228C131.008 135.441 128.368 138.081 125.141 138.081C121.898 138.081 119.293 135.441 119.293 132.228ZM149.095 132.228C149.095 128.966 151.737 126.368 154.962 126.368C158.21 126.368 160.823 128.966 160.823 132.228C160.823 135.441 158.21 138.081 154.962 138.081C151.737 138.081 149.095 135.441 149.095 132.228Z" fill="black"/>
<path d="M184.776 138.081C183.248 138.081 181.734 137.471 180.646 136.385C179.563 135.268 178.909 133.742 178.909 132.228C178.909 130.67 179.563 129.174 180.646 128.094C182.846 125.894 186.734 125.894 188.945 128.062C190.017 129.174 190.662 130.697 190.662 132.228C190.662 133.742 190.017 135.268 188.945 136.35C187.825 137.471 186.331 138.081 184.776 138.081Z" fill="black"/>
<path d="M0.00038147 162.873C0.00038147 159.611 2.63521 157.014 5.86206 157.014C9.09959 157.014 11.7131 159.611 11.7131 162.873C11.7131 166.086 9.09959 168.726 5.86206 168.726C2.63521 168.726 0.00038147 166.086 0.00038147 162.873ZM29.8155 162.873C29.8155 159.611 32.453 157.014 35.6692 157.014C38.9307 157.014 41.5522 159.611 41.5522 162.873C41.5522 166.086 38.9307 168.726 35.6692 168.726C32.453 168.726 29.8155 166.086 29.8155 162.873ZM59.6546 162.873C59.6546 159.611 62.2654 157.014 65.5189 157.014C68.7404 157.014 71.3753 159.611 71.3753 162.873C71.3753 166.086 68.7404 168.726 65.5189 168.726C62.2654 168.726 59.6546 166.086 59.6546 162.873ZM89.4777 162.873C89.4777 159.611 92.0778 157.014 95.3314 157.014C98.5529 157.014 101.188 159.611 101.188 162.873C101.188 166.086 98.5529 168.726 95.3314 168.726C92.0778 168.726 89.4777 166.086 89.4777 162.873ZM119.293 162.873C119.293 159.611 121.898 157.014 125.141 157.014C128.368 157.014 131.008 159.611 131.008 162.873C131.008 166.086 128.368 168.726 125.141 168.726C121.898 168.726 119.293 166.086 119.293 162.873ZM149.095 162.873C149.095 159.611 151.737 157.014 154.962 157.014C158.21 157.014 160.823 159.611 160.823 162.873C160.823 166.086 158.21 168.726 154.962 168.726C151.737 168.726 149.095 166.086 149.095 162.873Z" fill="black"/>
<path d="M184.776 168.726C183.248 168.726 181.734 168.116 180.646 167.03C179.563 165.913 178.909 164.387 178.909 162.873C178.909 161.315 179.563 159.819 180.646 158.739C182.846 156.539 186.734 156.539 188.945 158.707C190.017 159.819 190.662 161.342 190.662 162.873C190.662 164.387 190.017 165.913 188.945 166.996C187.825 168.116 186.331 168.726 184.776 168.726Z" fill="black"/>
<path d="M0.00038147 193.518C0.00038147 190.256 2.63521 187.659 5.86206 187.659C9.09959 187.659 11.7131 190.256 11.7131 193.518C11.7131 196.731 9.09959 199.372 5.86206 199.372C2.63521 199.372 0.00038147 196.731 0.00038147 193.518ZM29.8155 193.518C29.8155 190.256 32.453 187.659 35.6692 187.659C38.9307 187.659 41.5522 190.256 41.5522 193.518C41.5522 196.731 38.9307 199.372 35.6692 199.372C32.453 199.372 29.8155 196.731 29.8155 193.518ZM59.6546 193.518C59.6546 190.256 62.2654 187.659 65.5189 187.659C68.7404 187.659 71.3753 190.256 71.3753 193.518C71.3753 196.731 68.7404 199.372 65.5189 199.372C62.2654 199.372 59.6546 196.731 59.6546 193.518ZM89.4777 193.518C89.4777 190.256 92.0778 187.659 95.3314 187.659C98.5529 187.659 101.188 190.256 101.188 193.518C101.188 196.731 98.5529 199.372 95.3314 199.372C92.0778 199.372 89.4777 196.731 89.4777 193.518ZM119.293 193.518C119.293 190.256 121.898 187.659 125.141 187.659C128.368 187.659 131.008 190.256 131.008 193.518C131.008 196.731 128.368 199.372 125.141 199.372C121.898 199.372 119.293 196.731 119.293 193.518ZM149.095 193.518C149.095 190.256 151.737 187.659 154.962 187.659C158.21 187.659 160.823 190.256 160.823 193.518C160.823 196.731 158.21 199.372 154.962 199.372C151.737 199.372 149.095 196.731 149.095 193.518Z" fill="black"/>
<path d="M184.776 199.372C183.248 199.372 181.734 198.761 180.646 197.675C179.563 196.558 178.909 195.033 178.909 193.518C178.909 191.96 179.563 190.464 180.646 189.384C182.846 187.184 186.734 187.184 188.945 189.352C190.017 190.464 190.662 191.987 190.662 193.518C190.662 195.033 190.017 196.558 188.945 197.641C187.825 198.761 186.331 199.372 184.776 199.372Z" fill="black"/>
<path d="M0.00038147 224.163C0.00038147 220.901 2.63521 218.304 5.86206 218.304C9.09959 218.304 11.7131 220.901 11.7131 224.163C11.7131 227.376 9.09959 230.017 5.86206 230.017C2.63521 230.017 0.00038147 227.376 0.00038147 224.163ZM29.8155 224.163C29.8155 220.901 32.453 218.304 35.6692 218.304C38.9307 218.304 41.5522 220.901 41.5522 224.163C41.5522 227.376 38.9307 230.017 35.6692 230.017C32.453 230.017 29.8155 227.376 29.8155 224.163ZM59.6546 224.163C59.6546 220.901 62.2654 218.304 65.5189 218.304C68.7404 218.304 71.3753 220.901 71.3753 224.163C71.3753 227.376 68.7404 230.017 65.5189 230.017C62.2654 230.017 59.6546 227.376 59.6546 224.163ZM89.4777 224.163C89.4777 220.901 92.0778 218.304 95.3314 218.304C98.5529 218.304 101.188 220.901 101.188 224.163C101.188 227.376 98.5529 230.017 95.3314 230.017C92.0778 230.017 89.4777 227.376 89.4777 224.163ZM119.293 224.163C119.293 220.901 121.898 218.304 125.141 218.304C128.368 218.304 131.008 220.901 131.008 224.163C131.008 227.376 128.368 230.017 125.141 230.017C121.898 230.017 119.293 227.376 119.293 224.163ZM149.095 224.163C149.095 220.901 151.737 218.304 154.962 218.304C158.21 218.304 160.823 220.901 160.823 224.163C160.823 227.376 158.21 230.017 154.962 230.017C151.737 230.017 149.095 227.376 149.095 224.163Z" fill="black"/>
<path d="M184.776 230.017C183.248 230.017 181.734 229.406 180.646 228.32C179.563 227.203 178.909 225.678 178.909 224.163C178.909 222.605 179.563 221.109 180.646 220.029C182.846 217.829 186.734 217.829 188.945 219.997C190.017 221.109 190.662 222.632 190.662 224.163C190.662 225.678 190.017 227.203 188.945 228.286C187.825 229.406 186.331 230.017 184.776 230.017Z" fill="black"/>
</svg>
