<svg width="231" height="191" viewBox="0 0 231 191" fill="none" xmlns="http://www.w3.org/2000/svg">
<path d="M224.221 0.253677C227.469 0.253677 230.08 2.88849 230.08 6.11536C230.08 9.35287 227.469 11.9637 224.221 11.9637C220.994 11.9637 218.362 9.35287 218.362 6.11536C218.362 2.88849 220.994 0.253677 224.221 0.253677ZM224.221 30.0955C227.469 30.0955 230.08 32.7009 230.08 35.9225C230.08 39.184 227.469 41.8055 224.221 41.8055C220.994 41.8055 218.362 39.184 218.362 35.9225C218.362 32.7009 220.994 30.0955 224.221 30.0955ZM224.221 59.9079C227.472 59.9079 230.08 62.5187 230.08 65.7722C230.08 68.9884 227.472 71.6259 224.221 71.6259C220.994 71.6259 218.362 68.9884 218.362 65.7722C218.362 62.5187 220.994 59.9079 224.221 59.9079ZM224.221 89.731C227.472 89.731 230.08 92.3311 230.08 95.5847C230.08 98.8062 227.472 101.441 224.221 101.441C220.994 101.441 218.362 98.8062 218.362 95.5847C218.362 92.3311 220.994 89.731 224.221 89.731ZM224.221 119.543C227.472 119.543 230.08 122.176 230.08 125.394C230.08 128.653 227.472 131.261 224.221 131.261C220.994 131.261 218.362 128.653 218.362 125.394C218.362 122.176 220.994 119.543 224.221 119.543ZM224.221 149.348C227.472 149.348 230.08 151.991 230.08 155.215C230.08 158.463 227.472 161.077 224.221 161.077C220.994 161.077 218.362 158.463 218.362 155.215C218.362 151.991 220.994 149.348 224.221 149.348Z" fill="#FEDD5A"/>
<path d="M218.362 185.024C218.362 183.502 218.97 181.987 220.098 180.899C221.17 179.811 222.693 179.163 224.221 179.163C225.741 179.163 227.261 179.811 228.349 180.899C230.544 183.07 230.544 187.017 228.376 189.193C227.261 190.27 225.741 190.915 224.221 190.915C222.693 190.915 221.17 190.27 220.098 189.193C218.97 188.11 218.362 186.579 218.362 185.024Z" fill="#FEDD5A"/>
<path d="M191.977 0.253677C195.227 0.253677 197.83 2.88849 197.83 6.11536C197.83 9.35287 195.227 11.9664 191.977 11.9664C188.752 11.9664 186.112 9.35287 186.112 6.11536C186.112 2.88849 188.752 0.253677 191.977 0.253677ZM191.977 30.0955C195.227 30.0955 197.83 32.7063 197.83 35.9225C197.83 39.184 195.227 41.7788 191.977 41.7788C188.752 41.7788 186.112 39.184 186.112 35.9225C186.112 32.7063 188.752 30.0955 191.977 30.0955ZM191.977 59.9079C195.227 59.9079 197.83 62.5187 197.83 65.7722C197.83 68.9937 195.227 71.6286 191.977 71.6286C188.758 71.6286 186.115 68.9937 186.115 65.7722C186.115 62.5187 188.758 59.9079 191.977 59.9079ZM191.977 89.731C195.227 89.731 197.83 92.3311 197.83 95.5847C197.83 98.8062 195.227 101.441 191.977 101.441C188.758 101.441 186.115 98.8062 186.115 95.5847C186.115 92.3311 188.758 89.731 191.977 89.731ZM191.977 119.546C195.227 119.546 197.83 122.176 197.83 125.394C197.83 128.621 195.227 131.261 191.977 131.261C188.758 131.261 186.115 128.621 186.115 125.394C186.115 122.176 188.758 119.546 191.977 119.546ZM191.977 149.348C195.227 149.348 197.83 151.991 197.83 155.215C197.83 158.463 195.227 161.077 191.977 161.077C188.758 161.077 186.115 158.463 186.115 155.215C186.115 151.991 188.758 149.348 191.977 149.348Z" fill="#FEDD5A"/>
<path d="M186.115 185.03C186.115 183.502 186.755 181.987 187.835 180.899C188.929 179.816 190.451 179.163 191.977 179.163C193.526 179.163 195.022 179.816 196.137 180.899C198.297 183.099 198.297 186.987 196.137 189.198C195.022 190.27 193.526 190.915 191.977 190.915C190.451 190.915 188.929 190.27 187.835 189.198C186.755 188.11 186.115 186.584 186.115 185.03Z" fill="#FEDD5A"/>
<path d="M160.751 0.253677C163.969 0.253677 166.61 2.88849 166.61 6.11536C166.61 9.35287 163.969 11.9664 160.751 11.9664C157.5 11.9664 154.892 9.35287 154.892 6.11536C154.892 2.88849 157.5 0.253677 160.751 0.253677ZM160.751 30.0688C163.969 30.0688 166.61 32.7063 166.61 35.9225C166.61 39.184 163.969 41.7788 160.751 41.7788C157.5 41.7788 154.892 39.184 154.892 35.9225C154.892 32.7063 157.5 30.0688 160.751 30.0688ZM160.751 59.9079C163.969 59.9079 166.615 62.5187 166.615 65.7722C166.615 68.9937 163.969 71.6286 160.751 71.6286C157.5 71.6286 154.892 68.9937 154.892 65.7722C154.892 62.5187 157.5 59.9079 160.751 59.9079ZM160.751 89.731C163.969 89.731 166.615 92.3311 166.615 95.5847C166.615 98.8062 163.969 101.441 160.751 101.441C157.5 101.441 154.892 98.8062 154.892 95.5847C154.892 92.3311 157.5 89.731 160.751 89.731ZM160.751 119.546C163.969 119.546 166.615 122.176 166.615 125.394C166.615 128.621 163.969 131.261 160.751 131.261C157.5 131.261 154.892 128.621 154.892 125.394C154.892 122.176 157.5 119.546 160.751 119.546ZM160.751 149.348C163.969 149.348 166.615 151.991 166.615 155.215C166.615 158.463 163.969 161.077 160.751 161.077C157.5 161.077 154.892 158.463 154.892 155.215C154.892 151.991 157.5 149.348 160.751 149.348Z" fill="#FEDD5A"/>
<path d="M154.892 185.03C154.892 183.502 155.508 181.987 156.593 180.899C157.708 179.816 159.196 179.163 160.751 179.163C162.271 179.163 163.796 179.816 164.879 180.899C167.047 183.099 167.047 186.987 164.879 189.198C163.796 190.27 162.271 190.891 160.751 190.891C159.196 190.891 157.678 190.27 156.593 189.198C155.508 188.078 154.892 186.585 154.892 185.03Z" fill="#FEDD5A"/>
<path d="M128.498 0.253677C131.76 0.253677 134.357 2.8885 134.357 6.11536C134.357 9.35289 131.76 11.9664 128.498 11.9664C125.285 11.9664 122.645 9.35289 122.645 6.11536C122.645 2.8885 125.285 0.253677 128.498 0.253677ZM128.498 30.0688C131.76 30.0688 134.357 32.7063 134.357 35.9225C134.357 39.184 131.76 41.8055 128.498 41.8055C125.285 41.8055 122.645 39.184 122.645 35.9225C122.645 32.7063 125.285 30.0688 128.498 30.0688ZM128.498 59.9079C131.76 59.9079 134.357 62.5187 134.357 65.7722C134.357 68.9937 131.76 71.6286 128.498 71.6286C125.285 71.6286 122.645 68.9937 122.645 65.7722C122.645 62.5187 125.285 59.9079 128.498 59.9079ZM128.498 89.731C131.76 89.731 134.357 92.3311 134.357 95.5847C134.357 98.8062 131.76 101.441 128.498 101.441C125.285 101.441 122.645 98.8062 122.645 95.5847C122.645 92.3311 125.285 89.731 128.498 89.731ZM128.498 119.546C131.76 119.546 134.357 122.152 134.357 125.394C134.357 128.621 131.76 131.261 128.498 131.261C125.285 131.261 122.645 128.621 122.645 125.394C122.645 122.152 125.285 119.546 128.498 119.546ZM128.498 149.348C131.76 149.348 134.357 151.991 134.357 155.215C134.357 158.463 131.76 161.077 128.498 161.077C125.285 161.077 122.645 158.463 122.645 155.215C122.645 151.991 125.285 149.348 128.498 149.348Z" fill="#FEDD5A"/>
<path d="M122.645 185.03C122.645 183.502 123.255 181.987 124.341 180.899C125.458 179.816 126.984 179.163 128.498 179.163C130.056 179.163 131.552 179.816 132.632 180.899C134.832 183.099 134.832 186.987 132.664 189.198C131.552 190.27 130.029 190.915 128.498 190.915C126.984 190.915 125.458 190.27 124.375 189.198C123.255 188.078 122.645 186.584 122.645 185.03Z" fill="#FEDD5A"/>
<path d="M97.8518 0.253677C101.113 0.253677 103.711 2.8885 103.711 6.11536C103.711 9.35289 101.113 11.9664 97.8518 11.9664C94.6383 11.9664 91.998 9.35289 91.998 6.11536C91.998 2.8885 94.6383 0.253677 97.8518 0.253677ZM97.8518 30.0688C101.113 30.0688 103.711 32.7063 103.711 35.9225C103.711 39.184 101.113 41.8055 97.8518 41.8055C94.6383 41.8055 91.998 39.184 91.998 35.9225C91.998 32.7063 94.6383 30.0688 97.8518 30.0688ZM97.8518 59.9079C101.113 59.9079 103.711 62.5187 103.711 65.7722C103.711 68.9937 101.113 71.6286 97.8518 71.6286C94.6383 71.6286 91.998 68.9937 91.998 65.7722C91.998 62.5187 94.6383 59.9079 97.8518 59.9079ZM97.8518 89.731C101.113 89.731 103.711 92.3311 103.711 95.5847C103.711 98.8062 101.113 101.441 97.8518 101.441C94.6383 101.441 91.998 98.8062 91.998 95.5847C91.998 92.3311 94.6383 89.731 97.8518 89.731ZM97.8518 119.546C101.113 119.546 103.711 122.152 103.711 125.394C103.711 128.621 101.113 131.261 97.8518 131.261C94.6383 131.261 91.998 128.621 91.998 125.394C91.998 122.152 94.6383 119.546 97.8518 119.546ZM97.8518 149.348C101.113 149.348 103.711 151.991 103.711 155.215C103.711 158.463 101.113 161.077 97.8518 161.077C94.6383 161.077 91.998 158.463 91.998 155.215C91.998 151.991 94.6383 149.348 97.8518 149.348Z" fill="#FEDD5A"/>
<path d="M91.998 185.03C91.998 183.502 92.6088 181.987 93.6942 180.899C94.8116 179.816 96.337 179.163 97.8518 179.163C99.4092 179.163 100.905 179.816 101.985 180.899C104.185 183.099 104.186 186.987 102.017 189.198C100.905 190.27 99.3825 190.915 97.8518 190.915C96.337 190.915 94.8116 190.27 93.7289 189.198C92.6088 188.078 91.998 186.584 91.998 185.03Z" fill="#FEDD5A"/>
<path d="M67.2063 0.253677C70.4678 0.253677 73.0653 2.8885 73.0653 6.11536C73.0653 9.35289 70.4678 11.9664 67.2063 11.9664C63.9927 11.9664 61.3525 9.35289 61.3525 6.11536C61.3525 2.8885 63.9927 0.253677 67.2063 0.253677ZM67.2063 30.0688C70.4678 30.0688 73.0653 32.7063 73.0653 35.9225C73.0653 39.184 70.4678 41.8055 67.2063 41.8055C63.9927 41.8055 61.3525 39.184 61.3525 35.9225C61.3525 32.7063 63.9927 30.0688 67.2063 30.0688ZM67.2063 59.9079C70.4678 59.9079 73.0653 62.5187 73.0653 65.7722C73.0653 68.9937 70.4678 71.6286 67.2063 71.6286C63.9927 71.6286 61.3525 68.9937 61.3525 65.7722C61.3525 62.5187 63.9927 59.9079 67.2063 59.9079ZM67.2063 89.731C70.4678 89.731 73.0653 92.3311 73.0653 95.5847C73.0653 98.8062 70.4678 101.441 67.2063 101.441C63.9927 101.441 61.3525 98.8062 61.3525 95.5847C61.3525 92.3311 63.9927 89.731 67.2063 89.731ZM67.2063 119.546C70.4678 119.546 73.0653 122.152 73.0653 125.394C73.0653 128.621 70.4678 131.261 67.2063 131.261C63.9927 131.261 61.3525 128.621 61.3525 125.394C61.3525 122.152 63.9927 119.546 67.2063 119.546ZM67.2063 149.348C70.4678 149.348 73.0653 151.991 73.0653 155.215C73.0653 158.463 70.4678 161.077 67.2063 161.077C63.9927 161.077 61.3525 158.463 61.3525 155.215C61.3525 151.991 63.9927 149.348 67.2063 149.348Z" fill="#FEDD5A"/>
<path d="M61.3525 185.03C61.3525 183.502 61.9633 181.987 63.0487 180.899C64.1661 179.816 65.6915 179.163 67.2063 179.163C68.7637 179.163 70.2598 179.816 71.3398 180.899C73.54 183.099 73.54 186.987 71.3719 189.198C70.2598 190.27 68.737 190.915 67.2063 190.915C65.6915 190.915 64.1661 190.27 63.0834 189.198C61.9633 188.078 61.3525 186.584 61.3525 185.03Z" fill="#FEDD5A"/>
<path d="M36.5617 0.253677C39.8233 0.253677 42.4208 2.8885 42.4208 6.11536C42.4208 9.35289 39.8233 11.9664 36.5617 11.9664C33.3482 11.9664 30.708 9.35289 30.708 6.11536C30.708 2.8885 33.3482 0.253677 36.5617 0.253677ZM36.5617 30.0688C39.8233 30.0688 42.4208 32.7063 42.4208 35.9225C42.4208 39.184 39.8233 41.8055 36.5617 41.8055C33.3482 41.8055 30.708 39.184 30.708 35.9225C30.708 32.7063 33.3482 30.0688 36.5617 30.0688ZM36.5617 59.9079C39.8233 59.9079 42.4208 62.5187 42.4208 65.7722C42.4208 68.9937 39.8233 71.6286 36.5617 71.6286C33.3482 71.6286 30.708 68.9937 30.708 65.7722C30.708 62.5187 33.3482 59.9079 36.5617 59.9079ZM36.5617 89.731C39.8233 89.731 42.4208 92.3311 42.4208 95.5847C42.4208 98.8062 39.8233 101.441 36.5617 101.441C33.3482 101.441 30.708 98.8062 30.708 95.5847C30.708 92.3311 33.3482 89.731 36.5617 89.731ZM36.5617 119.546C39.8233 119.546 42.4208 122.152 42.4208 125.394C42.4208 128.621 39.8233 131.261 36.5617 131.261C33.3482 131.261 30.708 128.621 30.708 125.394C30.708 122.152 33.3482 119.546 36.5617 119.546ZM36.5617 149.348C39.8233 149.348 42.4208 151.991 42.4208 155.215C42.4208 158.463 39.8233 161.077 36.5617 161.077C33.3482 161.077 30.708 158.463 30.708 155.215C30.708 151.991 33.3482 149.348 36.5617 149.348Z" fill="#FEDD5A"/>
<path d="M30.708 185.03C30.708 183.502 31.3188 181.987 32.4042 180.899C33.5216 179.816 35.047 179.163 36.5617 179.163C38.1192 179.163 39.6153 179.816 40.6953 180.899C42.8954 183.099 42.8955 186.987 40.7274 189.198C39.6153 190.27 38.0925 190.915 36.5617 190.915C35.047 190.915 33.5216 190.27 32.4388 189.198C31.3188 188.078 30.708 186.584 30.708 185.03Z" fill="#FEDD5A"/>
<path d="M5.91623 0.253555C9.17776 0.253555 11.7753 2.88838 11.7753 6.11523C11.7753 9.35277 9.17776 11.9663 5.91623 11.9663C2.70271 11.9663 0.0625 9.35277 0.0625 6.11523C0.0625 2.88838 2.70271 0.253555 5.91623 0.253555ZM5.91623 30.0686C9.17776 30.0686 11.7753 32.7062 11.7753 35.9223C11.7753 39.1839 9.17776 41.8053 5.91623 41.8053C2.70271 41.8053 0.0625 39.1839 0.0625 35.9223C0.0625 32.7062 2.70271 30.0686 5.91623 30.0686ZM5.91623 59.9078C9.17776 59.9078 11.7753 62.5186 11.7753 65.7721C11.7753 68.9936 9.17776 71.6285 5.91623 71.6285C2.70271 71.6285 0.0625 68.9936 0.0625 65.7721C0.0625 62.5186 2.70271 59.9078 5.91623 59.9078ZM5.91623 89.7309C9.17776 89.7309 11.7753 92.331 11.7753 95.5845C11.7753 98.8061 9.17776 101.441 5.91623 101.441C2.70271 101.441 0.0625 98.8061 0.0625 95.5845C0.0625 92.331 2.70271 89.7309 5.91623 89.7309ZM5.91623 119.546C9.17776 119.546 11.7753 122.151 11.7753 125.394C11.7753 128.621 9.17776 131.261 5.91623 131.261C2.70271 131.261 0.0625 128.621 0.0625 125.394C0.0625 122.151 2.70271 119.546 5.91623 119.546ZM5.91623 149.348C9.17776 149.348 11.7753 151.991 11.7753 155.215C11.7753 158.463 9.17776 161.076 5.91623 161.076C2.70271 161.076 0.0625 158.463 0.0625 155.215C0.0625 151.991 2.70271 149.348 5.91623 149.348Z" fill="#FEDD5A"/>
<path d="M0.0625 185.03C0.0625 183.502 0.673297 181.987 1.75869 180.899C2.87609 179.816 4.40148 179.163 5.91623 179.163C7.47366 179.163 8.96975 179.816 10.0498 180.899C12.2499 183.099 12.25 186.987 10.0818 189.198C8.96978 190.27 7.44699 190.915 5.91623 190.915C4.40148 190.915 2.87606 190.27 1.79333 189.198C0.673265 188.078 0.0625 186.584 0.0625 185.03Z" fill="#FEDD5A"/>
</svg>
