<svg width="481" height="720" viewBox="0 0 481 720" fill="none" xmlns="http://www.w3.org/2000/svg">
<path d="M239.967 479.702C239.967 612.329 347.482 719.838 480.106 719.838C480.106 587.215 372.591 479.702 239.967 479.702Z" fill="white"/>
<path d="M240.178 242.094C107.554 242.094 0.0410156 349.606 0.0410156 482.229C132.665 482.229 240.178 374.72 240.178 242.094Z" fill="black"/>
<path fill-rule="evenodd" clip-rule="evenodd" d="M0.00195312 598.763L0.00197601 720C132.626 720 240.138 612.487 240.138 479.864H0.00197601L118.902 479.864C118.902 545.529 65.6669 598.763 0.00195312 598.763Z" fill="white"/>
<path d="M480.108 480.069H239.969V239.932H480.108V480.069Z" fill="white"/>
<path d="M269.918 326.385C272.979 326.385 275.976 325.143 278.141 322.976C280.308 320.812 281.547 317.817 281.547 314.754C281.547 311.69 280.308 308.693 278.141 306.528C275.976 304.364 272.979 303.121 269.918 303.121C266.854 303.121 263.857 304.364 261.693 306.528C259.525 308.693 258.283 311.69 258.283 314.754C258.283 317.817 259.525 320.812 261.693 322.976C263.857 325.143 266.854 326.385 269.918 326.385Z" fill="black"/>
<path d="M389.843 326.385H389.901C396.325 326.385 401.533 321.178 401.533 314.754C401.533 308.327 396.325 303.121 389.901 303.121H389.843C383.419 303.121 378.211 308.327 378.211 314.754C378.211 321.178 383.419 326.385 389.843 326.385Z" fill="black"/>
<path d="M329.864 326.385H329.922C336.346 326.385 341.554 321.178 341.554 314.754C341.554 308.327 336.346 303.121 329.922 303.121H329.864C323.44 303.121 318.232 308.327 318.232 314.754C318.232 321.178 323.44 326.385 329.864 326.385Z" fill="black"/>
<path d="M449.856 326.385C452.916 326.385 455.914 325.143 458.078 322.976C460.246 320.812 461.488 317.817 461.488 314.754C461.488 311.69 460.246 308.693 458.078 306.528C455.914 304.364 452.916 303.121 449.856 303.121C446.792 303.121 443.795 304.364 441.627 306.528C439.463 308.693 438.221 311.69 438.221 314.754C438.221 317.817 439.463 320.812 441.627 322.976C443.795 325.143 446.792 326.385 449.856 326.385Z" fill="black"/>
<path d="M269.918 278.607C272.979 278.607 275.976 277.362 278.141 275.197C280.308 273.03 281.547 270.035 281.547 266.972C281.547 263.908 280.308 260.914 278.141 258.746C275.976 256.579 272.979 255.34 269.918 255.34C266.854 255.34 263.857 256.579 261.693 258.746C259.525 260.914 258.283 263.908 258.283 266.972C258.283 270.035 259.525 273.03 261.693 275.197C263.857 277.362 266.854 278.607 269.918 278.607Z" fill="black"/>
<path d="M389.843 278.607H389.901C396.325 278.607 401.533 273.396 401.533 266.972C401.533 260.548 396.325 255.34 389.901 255.34H389.843C383.419 255.34 378.211 260.548 378.211 266.972C378.211 273.396 383.419 278.607 389.843 278.607Z" fill="black"/>
<path d="M329.864 278.607H329.922C336.346 278.607 341.554 273.396 341.554 266.972C341.554 260.548 336.346 255.34 329.922 255.34H329.864C323.44 255.34 318.232 260.548 318.232 266.972C318.232 273.396 323.44 278.607 329.864 278.607Z" fill="black"/>
<path d="M449.856 278.607C452.916 278.607 455.914 277.362 458.078 275.197C460.246 273.03 461.488 270.035 461.488 266.972C461.488 263.908 460.246 260.914 458.078 258.746C455.914 256.579 452.916 255.34 449.856 255.34C446.792 255.34 443.795 256.579 441.627 258.746C439.463 260.914 438.221 263.908 438.221 266.972C438.221 270.035 439.463 273.03 441.627 275.197C443.795 277.362 446.792 278.607 449.856 278.607Z" fill="black"/>
<path d="M269.918 374.167C272.979 374.167 275.976 372.925 278.141 370.761C280.308 368.593 281.547 365.599 281.547 362.535C281.547 359.472 280.308 356.477 278.141 354.31C275.976 352.143 272.979 350.903 269.918 350.903C266.854 350.903 263.857 352.143 261.693 354.31C259.525 356.477 258.283 359.472 258.283 362.535C258.283 365.599 259.525 368.593 261.693 370.761C263.857 372.925 266.854 374.167 269.918 374.167Z" fill="black"/>
<path d="M389.843 374.167H389.901C396.325 374.167 401.533 368.959 401.533 362.535C401.533 356.111 396.325 350.903 389.901 350.903H389.843C383.419 350.903 378.211 356.111 378.211 362.535C378.211 368.959 383.419 374.167 389.843 374.167Z" fill="black"/>
<path d="M329.864 374.167H329.922C336.346 374.167 341.554 368.959 341.554 362.535C341.554 356.111 336.346 350.903 329.922 350.903H329.864C323.44 350.903 318.232 356.111 318.232 362.535C318.232 368.959 323.44 374.167 329.864 374.167Z" fill="black"/>
<path d="M449.856 374.167C452.916 374.167 455.914 372.925 458.078 370.761C460.246 368.593 461.488 365.599 461.488 362.535C461.488 359.472 460.246 356.477 458.078 354.31C455.914 352.143 452.916 350.903 449.856 350.903C446.792 350.903 443.795 352.143 441.627 354.31C439.463 356.477 438.221 359.472 438.221 362.535C438.221 365.599 439.463 368.593 441.627 370.761C443.795 372.925 446.792 374.167 449.856 374.167Z" fill="black"/>
<path d="M269.918 421.949C272.979 421.949 275.976 420.707 278.141 418.54C280.308 416.375 281.547 413.378 281.547 410.317C281.547 407.253 280.308 404.256 278.141 402.089C275.976 399.924 272.979 398.685 269.918 398.685C266.854 398.685 263.857 399.924 261.693 402.089C259.525 404.256 258.283 407.253 258.283 410.317C258.283 413.378 259.525 416.375 261.693 418.54C263.857 420.707 266.854 421.949 269.918 421.949Z" fill="black"/>
<path d="M389.843 421.949H389.901C396.325 421.949 401.533 416.738 401.533 410.317C401.533 403.89 396.325 398.685 389.901 398.685H389.843C383.419 398.685 378.211 403.89 378.211 410.317C378.211 416.738 383.419 421.949 389.843 421.949Z" fill="black"/>
<path d="M329.864 421.949H329.922C336.346 421.949 341.554 416.738 341.554 410.317C341.554 403.89 336.346 398.685 329.922 398.685H329.864C323.44 398.685 318.232 403.89 318.232 410.317C318.232 416.738 323.44 421.949 329.864 421.949Z" fill="black"/>
<path d="M449.856 421.949C452.916 421.949 455.914 420.707 458.078 418.54C460.246 416.375 461.488 413.378 461.488 410.317C461.488 407.253 460.246 404.256 458.078 402.089C455.914 399.924 452.916 398.685 449.856 398.685C446.792 398.685 443.795 399.924 441.627 402.089C439.463 404.256 438.221 407.253 438.221 410.317C438.221 413.378 439.463 416.375 441.627 418.54C443.795 420.707 446.792 421.949 449.856 421.949Z" fill="black"/>
<path d="M269.918 469.728C272.979 469.728 275.976 468.489 278.141 466.321C280.308 464.157 281.547 461.159 281.547 458.096C281.547 455.035 280.308 452.038 278.141 449.871C275.976 447.706 272.979 446.464 269.918 446.464C266.854 446.464 263.857 447.706 261.693 449.871C259.525 452.038 258.283 455.035 258.283 458.096C258.283 461.159 259.525 464.157 261.693 466.321C263.857 468.489 266.854 469.728 269.918 469.728Z" fill="black"/>
<path d="M389.843 469.728H389.901C396.325 469.728 401.533 464.52 401.533 458.096C401.533 451.672 396.325 446.464 389.901 446.464H389.843C383.419 446.464 378.211 451.672 378.211 458.096C378.211 464.52 383.419 469.728 389.843 469.728Z" fill="black"/>
<path d="M329.864 469.728H329.922C336.346 469.728 341.554 464.52 341.554 458.096C341.554 451.672 336.346 446.464 329.922 446.464H329.864C323.44 446.464 318.232 451.672 318.232 458.096C318.232 464.52 323.44 469.728 329.864 469.728Z" fill="black"/>
<path d="M449.856 469.728C452.916 469.728 455.914 468.489 458.078 466.321C460.246 464.157 461.488 461.159 461.488 458.096C461.488 455.035 460.246 452.038 458.078 449.871C455.914 447.706 452.916 446.464 449.856 446.464C446.792 446.464 443.795 447.706 441.627 449.871C439.463 452.038 438.221 455.035 438.221 458.096C438.221 461.159 439.463 464.157 441.627 466.321C443.795 468.489 446.792 469.728 449.856 469.728Z" fill="black"/>
<path d="M240.18 240.139H0.0410156C0.0410156 107.513 107.554 0.000106812 240.18 0.000106812V240.139Z" fill="white"/>
<path d="M239.947 0L480.086 0L480.086 240.136C347.459 240.136 239.947 132.624 239.947 0Z" fill="black"/>
</svg>
