<svg width="26" height="26" viewBox="0 0 26 26" fill="none" xmlns="http://www.w3.org/2000/svg">
<g clip-path="url(#clip0)">
<path d="M21.4237 2.05469H4.51781C3.63949 2.05469 2.79712 2.4036 2.17605 3.02468C1.55497 3.64576 1.20605 4.48812 1.20605 5.36646V22.2723C1.20605 23.1507 1.55497 23.9931 2.17605 24.6141C2.79712 25.2351 3.63949 25.5841 4.51781 25.5841H12.2119V16.9959H9.30311V13.6459H12.2119V11.1782C12.2119 9.77969 12.5987 8.69293 13.3722 7.92087C14.1458 7.14734 15.1943 6.7591 16.5193 6.7591C17.8457 6.7591 18.7045 6.81057 19.0972 6.90763V9.88999H17.3296C16.6913 9.88999 16.256 10.0253 16.0222 10.2959C15.7898 10.565 15.6737 10.9709 15.6737 11.5106V13.6459H18.9869L18.5457 16.9959H15.6737V25.5841H21.4237C22.302 25.5841 23.1444 25.2351 23.7654 24.6141C24.3866 23.9931 24.7354 23.1507 24.7354 22.2723V5.36646C24.7354 4.48812 24.3866 3.64576 23.7654 3.02468C23.1444 2.4036 22.302 2.05469 21.4237 2.05469Z" fill="white"/>
</g>
<defs>
<clipPath id="clip0">
<rect width="25" height="25" fill="white" transform="translate(0.576172 0.84375)"/>
</clipPath>
</defs>
</svg>
