<svg width="130" height="119" viewBox="0 0 130 119" fill="none" xmlns="http://www.w3.org/2000/svg">
<path d="M17.9346 3.98173C17.9346 2.06907 19.4631 0.540506 21.3718 0.540506C23.2684 0.540506 24.813 2.06907 24.813 3.98173C24.813 5.87038 23.2684 7.41895 21.3718 7.41895C19.4631 7.41895 17.9346 5.87038 17.9346 3.98173ZM35.4446 3.98173C35.4446 2.06907 36.9731 0.540506 38.8858 0.540506C40.7744 0.540506 42.323 2.06907 42.323 3.98173C42.323 5.87038 40.7744 7.41895 38.8858 7.41895C36.9731 7.41895 35.4446 5.87038 35.4446 3.98173ZM52.9546 3.98173C52.9546 2.06907 54.5031 0.540506 56.3918 0.540506C58.2804 0.540506 59.829 2.06907 59.829 3.98173C59.829 5.87038 58.2804 7.41895 56.3918 7.41895C54.5031 7.41895 52.9546 5.87038 52.9546 3.98173ZM70.4646 3.98173C70.4646 2.06907 72.0092 0.540506 73.8978 0.540506C75.8065 0.540506 77.339 2.06907 77.339 3.98173C77.339 5.87038 75.8065 7.41895 73.8978 7.41895C72.0092 7.41895 70.4646 5.87038 70.4646 3.98173ZM87.9707 3.98173C87.9707 2.06907 89.5152 0.540506 91.4078 0.540506C93.3165 0.540506 94.845 2.06907 94.845 3.98173C94.845 5.87038 93.3165 7.41895 91.4078 7.41895C89.5152 7.41895 87.9707 5.87038 87.9707 3.98173ZM105.497 3.98173C105.497 2.06907 107.029 0.540506 108.914 0.540506C110.826 0.540506 112.371 2.06907 112.371 3.98173C112.371 5.87038 110.826 7.41895 108.914 7.41895C107.029 7.41895 105.497 5.87038 105.497 3.98173ZM123.003 3.98173C123.003 2.06907 124.531 0.540506 126.444 0.540506C128.337 0.540506 129.885 2.06907 129.885 3.98173C129.885 5.87038 128.337 7.41895 126.444 7.41895C124.531 7.41895 123.003 5.87038 123.003 3.98173Z" fill="black"/>
<path d="M3.84896 26.3571C2.95265 26.3571 2.06034 25.981 1.42012 25.3408C0.785099 24.7046 0.425781 23.8122 0.425781 22.9199C0.425781 22.0036 0.785099 21.1073 1.42012 20.471C2.71256 19.2026 4.99734 19.2026 6.28978 20.471C6.926 21.1273 7.28612 22.0036 7.28612 22.9199C7.28612 23.8122 6.926 24.7046 6.28978 25.3408C5.63756 25.981 4.76127 26.3571 3.84896 26.3571Z" fill="black"/>
<path d="M17.9346 22.9199C17.9346 21.0073 19.4631 19.4747 21.3718 19.4747C23.2684 19.4747 24.813 21.0073 24.813 22.9199C24.813 24.8086 23.2684 26.3571 21.3718 26.3571C19.4631 26.3571 17.9346 24.8086 17.9346 22.9199ZM35.4446 22.9199C35.4446 21.0073 36.9731 19.4747 38.8858 19.4747C40.7744 19.4747 42.323 21.0073 42.323 22.9199C42.323 24.8086 40.7744 26.3571 38.8858 26.3571C36.9731 26.3571 35.4446 24.8086 35.4446 22.9199ZM52.9546 22.9199C52.9546 21.0073 54.4831 19.4747 56.3918 19.4747C58.2804 19.4747 59.829 21.0073 59.829 22.9199C59.829 24.8086 58.2804 26.3571 56.3918 26.3571C54.4831 26.3571 52.9546 24.8086 52.9546 22.9199ZM70.4646 22.9199C70.4646 21.0073 72.0092 19.4747 73.8978 19.4747C75.8065 19.4747 77.339 21.0073 77.339 22.9199C77.339 24.8086 75.8065 26.3571 73.8978 26.3571C72.0092 26.3571 70.4646 24.8086 70.4646 22.9199ZM87.9707 22.9199C87.9707 21.0073 89.5152 19.4747 91.4078 19.4747C93.3165 19.4747 94.845 21.0073 94.845 22.9199C94.845 24.8086 93.3165 26.3571 91.4078 26.3571C89.5152 26.3571 87.9707 24.8086 87.9707 22.9199ZM105.497 22.9199C105.497 21.0073 107.029 19.4747 108.914 19.4747C110.826 19.4747 112.355 21.0073 112.355 22.9199C112.355 24.8086 110.826 26.3571 108.914 26.3571C107.029 26.3571 105.497 24.8086 105.497 22.9199ZM123.003 22.9199C123.003 21.0073 124.531 19.4747 126.444 19.4747C128.337 19.4747 129.885 21.0073 129.885 22.9199C129.885 24.8086 128.337 26.3571 126.444 26.3571C124.531 26.3571 123.003 24.8086 123.003 22.9199Z" fill="black"/>
<path d="M3.86149 44.6914C2.95318 44.6914 2.07689 44.3313 1.42066 43.6951C0.785644 43.0508 0.404297 42.1585 0.404297 41.2502C0.404297 40.3539 0.785644 39.4616 1.42066 38.8254C2.71311 37.549 4.99789 37.549 6.29033 38.8254C6.92655 39.4616 7.28667 40.3539 7.28667 41.2502C7.28667 42.1585 6.92655 43.0508 6.29033 43.6951C5.6381 44.3313 4.7618 44.6914 3.86149 44.6914Z" fill="black"/>
<path d="M17.9346 41.2502C17.9346 39.3495 19.4631 37.8091 21.3718 37.8091C23.2684 37.8091 24.813 39.3495 24.813 41.2502C24.813 43.1628 23.2684 44.6914 21.3718 44.6914C19.4631 44.6914 17.9346 43.1628 17.9346 41.2502ZM35.4446 41.2502C35.4446 39.3495 36.9731 37.8091 38.8858 37.8091C40.7744 37.8091 42.323 39.3495 42.323 41.2502C42.323 43.1628 40.7744 44.6914 38.8858 44.6914C36.9731 44.6914 35.4446 43.1628 35.4446 41.2502ZM52.9546 41.2502C52.9546 39.3495 54.5031 37.8091 56.3918 37.8091C58.2804 37.8091 59.829 39.3495 59.829 41.2502C59.829 43.1628 58.2804 44.6914 56.3918 44.6914C54.5031 44.6914 52.9546 43.1628 52.9546 41.2502ZM70.4646 41.2502C70.4646 39.3495 72.0092 37.8091 73.8978 37.8091C75.8065 37.8091 77.339 39.3495 77.339 41.2502C77.339 43.1628 75.8065 44.6914 73.8978 44.6914C72.0092 44.6914 70.4646 43.1628 70.4646 41.2502ZM87.9707 41.2502C87.9707 39.3495 89.5152 37.8091 91.4078 37.8091C93.3165 37.8091 94.845 39.3495 94.845 41.2502C94.845 43.1628 93.3165 44.6914 91.4078 44.6914C89.5152 44.6914 87.9707 43.1628 87.9707 41.2502ZM105.477 41.2502C105.477 39.3495 107.029 37.8091 108.914 37.8091C110.826 37.8091 112.355 39.3495 112.355 41.2502C112.355 43.1628 110.826 44.6914 108.914 44.6914C107.029 44.6914 105.477 43.1628 105.477 41.2502ZM123.003 41.2502C123.003 39.3495 124.531 37.8091 126.444 37.8091C128.337 37.8091 129.885 39.3495 129.885 41.2502C129.885 43.1628 128.337 44.6914 126.444 44.6914C124.531 44.6914 123.003 43.1628 123.003 41.2502Z" fill="black"/>
<path d="M3.86149 63.626C2.95318 63.626 2.07689 63.2659 1.42066 62.6256C0.785644 61.9734 0.404297 61.0971 0.404297 60.1888C0.404297 59.2764 0.785644 58.3962 1.42066 57.744C2.71311 56.4715 4.99789 56.4715 6.29033 57.744C6.92655 58.3962 7.28667 59.2764 7.28667 60.1888C7.28667 61.0971 6.92655 61.9734 6.29033 62.6096C5.6381 63.2658 4.7618 63.626 3.86149 63.626Z" fill="black"/>
<path d="M17.9346 60.1888C17.9346 58.2761 19.4631 56.7476 21.3718 56.7476C23.2684 56.7476 24.813 58.2761 24.813 60.1888C24.813 62.0734 23.2684 63.626 21.3718 63.626C19.4631 63.626 17.9346 62.0734 17.9346 60.1888ZM35.4446 60.1888C35.4446 58.2761 36.9731 56.7476 38.8858 56.7476C40.7744 56.7476 42.323 58.2761 42.323 60.1888C42.323 62.0734 40.7744 63.626 38.8858 63.626C36.9731 63.626 35.4446 62.0734 35.4446 60.1888ZM52.9546 60.1888C52.9546 58.2761 54.4831 56.7476 56.3918 56.7476C58.2804 56.7476 59.829 58.2761 59.829 60.1888C59.829 62.0734 58.2804 63.626 56.3918 63.626C54.4831 63.626 52.9546 62.0734 52.9546 60.1888ZM70.4646 60.1888C70.4646 58.2761 72.0092 56.7476 73.8978 56.7476C75.8065 56.7476 77.339 58.2761 77.339 60.1888C77.339 62.0734 75.8065 63.626 73.8978 63.626C72.0092 63.626 70.4646 62.0734 70.4646 60.1888ZM87.9707 60.1888C87.9707 58.2761 89.5152 56.7476 91.4078 56.7476C93.3165 56.7476 94.845 58.2761 94.845 60.1888C94.845 62.0734 93.3165 63.626 91.4078 63.626C89.5152 63.626 87.9707 62.0734 87.9707 60.1888ZM105.477 60.1888C105.477 58.2761 107.029 56.7476 108.914 56.7476C110.826 56.7476 112.371 58.2761 112.371 60.1888C112.371 62.0734 110.826 63.626 108.914 63.626C107.029 63.626 105.477 62.0734 105.477 60.1888ZM123.003 60.1888C123.003 58.2761 124.531 56.7476 126.444 56.7476C128.337 56.7476 129.885 58.2761 129.885 60.1888C129.885 62.0734 128.337 63.626 126.444 63.626C124.531 63.626 123.003 62.0734 123.003 60.1888Z" fill="black"/>
<path d="M3.84896 80.8124C2.95265 80.8124 2.06034 80.4442 1.42012 79.808C0.785099 79.1558 0.425781 78.2795 0.425781 77.3672C0.425781 76.4708 0.785099 75.5826 1.42012 74.9424C2.69255 73.67 4.99734 73.6539 6.28978 74.9424C6.926 75.5826 7.28612 76.4708 7.28612 77.3672C7.28612 78.2795 6.926 79.1558 6.28978 79.808C5.63756 80.4442 4.76127 80.8124 3.84896 80.8124Z" fill="black"/>
<path d="M17.9346 77.3672C17.9346 75.4745 19.4631 73.93 21.3558 73.93C23.2684 73.93 24.813 75.4745 24.813 77.3672C24.813 79.2758 23.2684 80.8124 21.3558 80.8124C19.4631 80.8124 17.9346 79.2758 17.9346 77.3672ZM35.4446 77.3672C35.4446 75.4745 36.9731 73.93 38.8858 73.93C40.7744 73.93 42.323 75.4745 42.323 77.3672C42.323 79.2758 40.7744 80.8124 38.8858 80.8124C36.9731 80.8124 35.4446 79.2758 35.4446 77.3672ZM52.9546 77.3672C52.9546 75.4745 54.4831 73.93 56.3918 73.93C58.2804 73.93 59.829 75.4745 59.829 77.3672C59.829 79.2758 58.2804 80.8124 56.3918 80.8124C54.4831 80.8124 52.9546 79.2758 52.9546 77.3672ZM70.4646 77.3672C70.4646 75.4745 72.0092 73.93 73.8978 73.93C75.8065 73.93 77.339 75.4745 77.339 77.3672C77.339 79.2758 75.8065 80.8124 73.8978 80.8124C72.0092 80.8124 70.4646 79.2758 70.4646 77.3672ZM87.9707 77.3672C87.9707 75.4745 89.5152 73.93 91.4078 73.93C93.3165 73.93 94.845 75.4745 94.845 77.3672C94.845 79.2758 93.3165 80.8124 91.4078 80.8124C89.5152 80.8124 87.9707 79.2758 87.9707 77.3672ZM105.477 77.3672C105.477 75.4745 107.029 73.93 108.934 73.93C110.827 73.93 112.355 75.4745 112.355 77.3672C112.355 79.2758 110.827 80.8124 108.934 80.8124C107.029 80.8124 105.477 79.2758 105.477 77.3672ZM123.003 77.3672C123.003 75.4745 124.531 73.93 126.444 73.93C128.337 73.93 129.885 75.4745 129.885 77.3672C129.885 79.2758 128.337 80.8124 126.444 80.8124C124.531 80.8124 123.003 79.2758 123.003 77.3672Z" fill="black"/>
<path d="M3.8495 99.7424C2.95319 99.7424 2.06088 99.3783 1.42066 98.7261C0.785644 98.0898 0.404297 97.1975 0.404297 96.3012C0.404297 95.3969 0.785644 94.5166 1.42066 93.8804C2.6931 92.5919 4.99789 92.592 6.29033 93.8644C6.92655 94.5167 7.30667 95.3969 7.30667 96.3012C7.30667 97.1975 6.92655 98.0898 6.29033 98.7261C5.6381 99.3783 4.76181 99.7424 3.8495 99.7424Z" fill="black"/>
<path d="M17.9346 96.3012C17.9346 94.3926 19.4631 92.868 21.3718 92.868C23.2684 92.868 24.813 94.3926 24.813 96.3012C24.813 98.1979 23.2684 99.7424 21.3718 99.7424C19.4631 99.7424 17.9346 98.1979 17.9346 96.3012ZM35.4446 96.3012C35.4446 94.3926 36.9731 92.868 38.8858 92.868C40.7744 92.868 42.323 94.3926 42.323 96.3012C42.323 98.1979 40.7744 99.7424 38.8858 99.7424C36.9731 99.7424 35.4446 98.1979 35.4446 96.3012ZM52.9546 96.3012C52.9546 94.3926 54.4831 92.868 56.3918 92.868C58.2804 92.868 59.829 94.3926 59.829 96.3012C59.829 98.1979 58.2804 99.7424 56.3918 99.7424C54.4831 99.7424 52.9546 98.1979 52.9546 96.3012ZM70.4646 96.3012C70.4646 94.3926 72.0092 92.868 73.8978 92.868C75.8065 92.868 77.339 94.3926 77.339 96.3012C77.339 98.1979 75.8065 99.7424 73.8978 99.7424C72.0092 99.7424 70.4646 98.1979 70.4646 96.3012ZM87.9707 96.3012C87.9707 94.3926 89.5152 92.868 91.4078 92.868C93.3165 92.868 94.845 94.3926 94.845 96.3012C94.845 98.1979 93.3165 99.7424 91.4078 99.7424C89.5152 99.7424 87.9707 98.1979 87.9707 96.3012ZM105.477 96.3012C105.477 94.3926 107.029 92.868 108.914 92.868C110.826 92.868 112.371 94.3926 112.371 96.3012C112.371 98.1979 110.826 99.7424 108.914 99.7424C107.029 99.7424 105.477 98.1979 105.477 96.3012ZM123.003 96.3012C123.003 94.3926 124.531 92.868 126.444 92.868C128.337 92.868 129.885 94.3926 129.885 96.3012C129.885 98.1979 128.337 99.7424 126.444 99.7424C124.531 99.7424 123.003 98.1979 123.003 96.3012Z" fill="black"/>
<path d="M3.86149 118.093C2.95318 118.093 2.06088 117.717 1.42066 117.081C0.785644 116.444 0.404297 115.552 0.404297 114.656C0.404297 113.743 0.785644 112.847 1.42066 112.211C2.71311 110.938 4.99789 110.938 6.29033 112.211C6.92655 112.847 7.28667 113.743 7.28667 114.656C7.28667 115.552 6.92655 116.444 6.29033 117.081C5.6381 117.717 4.7618 118.093 3.86149 118.093Z" fill="black"/>
<path d="M17.9346 114.656C17.9346 112.743 19.4631 111.215 21.3718 111.215C23.2684 111.215 24.813 112.743 24.813 114.656C24.813 116.548 23.2684 118.093 21.3718 118.093C19.4631 118.093 17.9346 116.548 17.9346 114.656ZM35.4446 114.656C35.4446 112.743 36.9731 111.215 38.8858 111.215C40.7744 111.215 42.323 112.743 42.323 114.656C42.323 116.548 40.7744 118.093 38.8858 118.093C36.9731 118.093 35.4446 116.548 35.4446 114.656ZM52.9546 114.656C52.9546 112.743 54.4831 111.215 56.3918 111.215C58.2804 111.215 59.829 112.743 59.829 114.656C59.829 116.548 58.2804 118.093 56.3918 118.093C54.4831 118.093 52.9546 116.548 52.9546 114.656ZM70.4646 114.656C70.4646 112.743 72.0092 111.215 73.8978 111.215C75.8065 111.215 77.339 112.743 77.339 114.656C77.339 116.548 75.8065 118.093 73.8978 118.093C72.0092 118.093 70.4646 116.548 70.4646 114.656ZM87.9707 114.656C87.9707 112.743 89.5152 111.215 91.4078 111.215C93.3165 111.215 94.845 112.743 94.845 114.656C94.845 116.548 93.3165 118.093 91.4078 118.093C89.5152 118.093 87.9707 116.548 87.9707 114.656ZM105.477 114.656C105.477 112.743 107.029 111.215 108.914 111.215C110.826 111.215 112.355 112.743 112.355 114.656C112.355 116.548 110.826 118.093 108.914 118.093C107.029 118.093 105.477 116.548 105.477 114.656ZM123.003 114.656C123.003 112.743 124.531 111.215 126.444 111.215C128.337 111.215 129.885 112.743 129.885 114.656C129.885 116.548 128.337 118.093 126.444 118.093C124.531 118.093 123.003 116.548 123.003 114.656Z" fill="black"/>
<path d="M3.84896 7.41895C2.95265 7.41895 2.06034 7.05881 1.42012 6.40258C0.785099 5.77036 0.425781 4.89004 0.425781 3.98173C0.425781 3.06941 0.785099 2.18908 1.42012 1.55287C2.69255 0.264423 5.01735 0.264407 6.28978 1.53684C6.926 2.18907 7.28612 3.08542 7.28612 3.98173C7.28612 4.87003 6.926 5.77036 6.28978 6.40258C5.65357 7.05881 4.76127 7.41895 3.84896 7.41895Z" fill="black"/>
</svg>
