<svg width="101" height="101" viewBox="0 0 101 101" fill="none" xmlns="http://www.w3.org/2000/svg">
<g clip-path="url(#clip0)">
<path d="M38.416 100.984C47.0571 100.984 53.7473 100.157 59.1138 98.4659C59.0001 97.8556 58.9238 97.2315 58.9238 96.5891C58.9238 93.7189 60.1171 91.128 62.0244 89.2649C60.1171 87.4018 58.9238 84.8109 58.9238 81.9407C58.9238 79.0705 60.1171 76.4796 62.0244 74.6165C60.1171 72.7534 58.9238 70.1624 58.9238 67.2922C58.9238 64.4221 60.1171 61.8311 62.0244 59.968C60.1171 58.1049 58.9238 55.514 58.9238 52.6438C58.9238 49.2533 60.5977 46.2649 63.1421 44.3972C61.3996 42.8019 59.538 41.3721 57.5849 40.114C58.3783 39.1146 58.9238 37.9053 58.9238 36.5305C58.9238 33.2941 56.3008 30.6711 53.0645 30.6711H23.7676C20.5312 30.6711 17.9082 33.2941 17.9082 36.5305C17.9082 37.9023 18.4522 39.1077 19.2411 40.1057C7.86716 47.4329 0.134766 60.7012 0.134766 74.6165C0.134766 98.2516 22.0655 100.984 38.416 100.984ZM38.3847 72.5451C33.5378 72.5451 29.5957 68.603 29.5957 63.756C29.5957 59.9299 32.0676 56.7019 35.4863 55.4972V51.179C35.4863 49.56 36.7971 48.2493 38.416 48.2493C40.035 48.2493 41.3457 49.56 41.3457 51.179V55.517C44.7324 56.7385 47.1738 59.9535 47.1738 63.756C47.1738 65.3757 45.8631 66.6857 44.2441 66.6857C42.6244 66.6857 41.3144 65.3757 41.3144 63.756C41.3144 62.1393 40.0006 60.8263 38.3847 60.8263C36.7681 60.8263 35.455 62.1393 35.455 63.756C35.455 65.3727 36.7681 66.6857 38.3847 66.6857C43.2309 66.6857 47.1738 70.6286 47.1738 75.4748C47.1738 79.2773 44.7324 82.4923 41.3457 83.7145V86.3352C41.3457 87.9542 40.035 89.2649 38.416 89.2649C36.7971 89.2649 35.4863 87.9542 35.4863 86.3352V83.7336C32.0676 82.5297 29.5957 79.3009 29.5957 75.4748C29.5957 73.8558 30.9056 72.5451 32.5254 72.5451C34.1443 72.5451 35.455 73.8558 35.455 75.4748C35.455 77.0914 36.7681 78.4044 38.3847 78.4044C40.0006 78.4044 41.3144 77.0914 41.3144 75.4748C41.3144 73.8581 40.0006 72.5451 38.3847 72.5451Z" fill="black"/>
<path d="M95.7402 92.1946H69.1777C66.7508 92.1946 64.7832 94.1622 64.7832 96.5891C64.7832 99.016 66.7508 100.984 69.1777 100.984H95.7402C98.1671 100.984 100.135 99.016 100.135 96.5891C100.135 94.1622 98.1671 92.1946 95.7402 92.1946Z" fill="black"/>
<path d="M95.7402 77.5461H69.1777C66.7508 77.5461 64.7832 79.5138 64.7832 81.9407C64.7832 84.3676 66.7508 86.3352 69.1777 86.3352H95.7402C98.1671 86.3352 100.135 84.3676 100.135 81.9407C100.135 79.5138 98.1671 77.5461 95.7402 77.5461Z" fill="black"/>
<path d="M95.7402 62.8977H69.1777C66.7508 62.8977 64.7832 64.8653 64.7832 67.2922C64.7832 69.7191 66.7508 71.6868 69.1777 71.6868H95.7402C98.1671 71.6868 100.135 69.7191 100.135 67.2922C100.135 64.8653 98.1671 62.8977 95.7402 62.8977Z" fill="black"/>
<path d="M95.7402 48.2493H69.1777C66.7508 48.2493 64.7832 50.2169 64.7832 52.6438C64.7832 55.0707 66.7508 57.0383 69.1777 57.0383H95.7402C98.1671 57.0383 100.135 55.0707 100.135 52.6438C100.135 50.2169 98.1671 48.2493 95.7402 48.2493Z" fill="black"/>
<path d="M46.6657 6.84302C45.4519 3.44031 42.2308 0.983643 38.4161 0.983643C34.5968 0.983643 31.3383 3.43268 30.1275 6.84302H20.8379C19.8965 6.84302 19.0122 7.29468 18.4606 8.05914C17.9113 8.82285 17.7595 9.80704 18.0601 10.6997L22.6339 24.8118H54.199L58.772 10.6997C59.0726 9.80704 58.9208 8.82285 58.3715 8.05914C57.8199 7.29468 56.9356 6.84302 55.9942 6.84302H46.6657Z" fill="black"/>
</g>
<defs>
<clipPath id="clip0">
<rect width="100" height="100" fill="white" transform="translate(0.134766 0.983643)"/>
</clipPath>
</defs>
</svg>
