<svg width="101" height="101" viewBox="0 0 101 101" fill="none" xmlns="http://www.w3.org/2000/svg">
<g clip-path="url(#clip0)">
<path d="M45.145 92.1664H54.8922L57.8136 86.7562H42.2217L45.145 92.1664Z" fill="black"/>
<path d="M41.001 32.6548H48.2144V83.1494H41.001V32.6548Z" fill="black"/>
<path d="M15.9014 12.9296C28.9469 13.943 30.1805 25.5189 30.2365 29.0482H35.5907V3.8009H24.7705C18.5054 3.8009 16.4894 8.76378 15.9014 12.9296Z" fill="black"/>
<path d="M51.8213 32.6548H59.0347V83.1494H51.8213V32.6548Z" fill="black"/>
<path d="M50.8151 99.7207L52.9468 95.7731H47.0947L49.2281 99.7207C49.3855 100.012 49.6903 100.194 50.0216 100.194C50.353 100.194 50.6577 100.012 50.8151 99.7207Z" fill="black"/>
<path d="M82.4788 0.194092H75.2653C74.2694 0.194092 73.4619 1.00141 73.4619 1.9975V30.8516C73.4619 31.8475 74.2692 32.655 75.2653 32.655H82.4788C83.4747 32.655 84.2822 31.8477 84.2822 30.8516V1.9975C84.2822 1.00141 83.4749 0.194092 82.4788 0.194092Z" fill="black"/>
<path d="M66.248 9.21094H69.8548V23.638H66.248V9.21094Z" fill="black"/>
<path d="M59.0343 3.8009H39.1973V29.0482H62.6412V7.40752C62.6412 5.41575 61.0263 3.8009 59.0343 3.8009ZM57.2309 11.0143H44.6073C43.6114 11.0143 42.8039 10.207 42.8039 9.21093C42.8039 8.21484 43.6112 7.40752 44.6073 7.40752H57.2309C58.2268 7.40752 59.0343 8.21484 59.0343 9.21093C59.0343 10.207 58.227 11.0143 57.2309 11.0143Z" fill="black"/>
</g>
<defs>
<clipPath id="clip0">
<rect width="100" height="100" fill="white" transform="translate(0.0917969 0.194092)"/>
</clipPath>
</defs>
</svg>
