<svg width="41" height="41" viewBox="0 0 41 41" fill="none" xmlns="http://www.w3.org/2000/svg">
<path d="M38.1125 27.8705C35.3792 27.8705 32.7347 27.426 30.2681 26.626C29.4903 26.3594 28.6236 26.5594 28.0236 27.1594L24.5347 31.5372C18.2458 28.5372 12.3569 22.8705 9.22361 16.3594L13.5569 12.6705C14.1569 12.0483 14.3347 11.1816 14.0903 10.4038C13.2681 7.93715 12.8458 5.29271 12.8458 2.55938C12.8458 1.35938 11.8458 0.359375 10.6458 0.359375H2.95694C1.75694 0.359375 0.3125 0.892708 0.3125 2.55938C0.3125 23.2038 17.4903 40.3594 38.1125 40.3594C39.6903 40.3594 40.3125 38.9594 40.3125 37.7372V30.0705C40.3125 28.8705 39.3125 27.8705 38.1125 27.8705Z" fill="white"/>
</svg>
