<svg width="101" height="100" viewBox="0 0 101 100" fill="none" xmlns="http://www.w3.org/2000/svg">
<g clip-path="url(#clip0)">
<path d="M33.9443 28.5715H41.0871V39.2858H33.9443V28.5715Z" fill="black"/>
<path d="M44.6582 28.5715H50.0154V39.2858H44.6582V28.5715Z" fill="black"/>
<path d="M42.8721 25H49.4186L49.415 24.9928L43.4668 16.0715H31.5631L25.615 24.9928L25.6113 25H32.1578H42.8721Z" fill="black"/>
<path d="M36.0301 9.37153L33.9443 12.5H41.0871L39.0014 9.37153C38.6701 8.87485 38.1127 8.57642 37.5156 8.57642C36.9187 8.57642 36.3611 8.87485 36.0301 9.37153Z" fill="black"/>
<path d="M53.5871 26.9732V39.2857H75.0156V35.7143H73.2299C72.2438 35.7143 71.4441 34.9148 71.4441 33.9285C71.4441 32.9422 72.2436 32.1428 73.2299 32.1428H75.0156V28.5713H71.4441C70.458 28.5713 69.6584 27.7719 69.6584 26.7855C69.6584 25.7992 70.4578 24.9998 71.4441 24.9998H75.0156V21.4283H73.2299C72.2438 21.4283 71.4441 20.6289 71.4441 19.6426C71.4441 18.6562 72.2436 17.8568 73.2299 17.8568H75.0156V14.2857H71.4441C70.458 14.2857 69.6584 13.4863 69.6584 12.5C69.6584 11.5137 70.4578 10.7143 71.4441 10.7143H75.0156V7.14277H73.2299C72.2438 7.14277 71.4441 6.34336 71.4441 5.35703C71.4441 4.3707 72.2436 3.57129 73.2299 3.57129H75.0156V1.78574C75.0156 0.799609 74.2162 0 73.2299 0H51.8014C50.8152 0 50.0156 0.799414 50.0156 1.78574V19.4643L52.3871 23.0215C53.1689 24.1912 53.5865 25.5662 53.5871 26.9732Z" fill="black"/>
<path d="M41.0865 83.9285C42.0728 83.9285 42.8723 83.129 42.8723 82.1428C42.8723 81.1566 42.0728 80.3571 41.0865 80.3571C40.1003 80.3571 39.3008 81.1566 39.3008 82.1428C39.3008 83.129 40.1003 83.9285 41.0865 83.9285Z" fill="black"/>
<path d="M41.0871 69.6428C42.0732 69.6428 42.8729 68.8434 42.8729 67.857V50H25.0156V73.2143C25.0156 74.2004 25.815 75 26.8014 75C27.7875 75 28.5871 74.2006 28.5871 73.2143V66.0715C28.5871 63.1129 30.9855 60.7143 33.9443 60.7143C36.9029 60.7143 39.3016 63.1127 39.3016 66.0715V67.8572C39.3014 68.8434 40.101 69.6428 41.0871 69.6428Z" fill="black"/>
<path d="M85.7295 42.8572H16.0865C15.1004 42.8572 14.3008 43.6566 14.3008 44.6429C14.3008 45.6293 15.1002 46.4287 16.0865 46.4287H85.7293C86.7154 46.4287 87.515 45.6293 87.515 44.6429C87.515 43.6566 86.7156 42.8572 85.7295 42.8572Z" fill="black"/>
<path d="M46.4436 67.8572C46.4436 70.8158 44.0451 73.2145 41.0863 73.2145C38.1275 73.2145 35.7291 70.816 35.7291 67.8572V66.0715C35.7291 65.0854 34.9297 64.2857 33.9434 64.2857C32.957 64.2857 32.1578 65.0852 32.1578 66.0715V73.2143C32.1578 76.1728 29.7594 78.5715 26.8006 78.5715C23.842 78.5715 21.4434 76.173 21.4434 73.2143V50H17.8721V91.0715C17.8779 96.0002 21.8721 99.9941 26.8006 100H73.2291C78.1578 99.9941 82.1517 96.0002 82.1576 91.0715V50H46.4436V67.8572ZM41.0863 87.5C38.1277 87.5 35.7291 85.1016 35.7291 82.1428C35.7291 79.184 38.1275 76.7855 41.0863 76.7855C44.0451 76.7855 46.4436 79.184 46.4436 82.1428C46.4436 85.1016 44.0451 87.5 41.0863 87.5Z" fill="black"/>
<path d="M25.0156 28.5715H30.3729V39.2858H25.0156V28.5715Z" fill="black"/>
</g>
<defs>
<clipPath id="clip0">
<rect width="100" height="100" fill="white" transform="translate(0.908203)"/>
</clipPath>
</defs>
</svg>
