<svg width="194" height="331" viewBox="0 0 194 331" fill="none" xmlns="http://www.w3.org/2000/svg">
<path d="M154.568 141.134C158.386 141.134 161.45 144.229 161.45 148.023C161.45 151.837 158.393 154.908 154.568 154.908C150.784 154.901 147.676 151.837 147.683 148.023C147.676 144.235 150.784 141.134 154.568 141.134ZM154.568 176.226C158.386 176.215 161.45 179.283 161.45 183.07C161.457 186.888 158.393 189.989 154.568 189.989C150.784 189.983 147.676 186.888 147.676 183.073C147.676 179.283 150.784 176.215 154.568 176.226Z" fill="white"/>
<path d="M116.659 106.08C120.484 106.08 123.541 109.178 123.548 112.962C123.548 116.79 120.477 119.854 116.659 119.854C112.875 119.854 109.78 116.78 109.767 112.972C109.78 109.178 112.868 106.08 116.659 106.08ZM116.659 141.134C120.477 141.134 123.548 144.236 123.541 148.023C123.541 151.838 120.484 154.908 116.659 154.902C112.875 154.908 109.78 151.838 109.78 148.023C109.78 144.236 112.875 141.134 116.659 141.134ZM116.659 176.216C120.484 176.209 123.548 179.283 123.548 183.07C123.548 186.888 120.477 189.956 116.659 189.956C112.875 189.956 109.78 186.888 109.767 183.07C109.78 179.283 112.875 176.216 116.659 176.216ZM116.659 211.273C120.477 211.273 123.541 214.337 123.548 218.162C123.541 221.942 120.477 225.044 116.659 225.044C112.868 225.044 109.767 221.949 109.767 218.155C109.78 214.337 112.875 211.273 116.659 211.273Z" fill="white"/>
<path d="M79.9523 71.0254C83.7361 71.0322 86.8377 74.1271 86.8377 77.9142C86.8377 81.7014 83.7361 84.7996 79.9523 84.803C76.1275 84.7996 73.0669 81.7014 73.0566 77.9142C73.0669 74.1271 76.1275 71.0322 79.9523 71.0254ZM79.9592 106.073C83.7429 106.08 86.8377 109.178 86.848 112.961C86.8377 116.779 83.7361 119.854 79.9592 119.854C76.1275 119.854 73.0669 116.79 73.0669 112.961C73.0669 109.185 76.1275 106.073 79.9592 106.073ZM79.9592 141.134C83.7463 141.134 86.8377 144.235 86.8377 148.022C86.8377 151.837 83.7429 154.908 79.9523 154.908C76.1378 154.908 73.0669 151.837 73.0669 148.022C73.0669 144.228 76.1275 141.134 79.9592 141.134ZM79.9523 176.181C83.7429 176.181 86.848 179.283 86.8343 183.07C86.8378 186.888 83.7429 189.948 79.9523 189.948C76.1275 189.955 73.0738 186.888 73.0669 183.07C73.0669 179.283 76.1378 176.181 79.9523 176.181ZM79.9523 211.262C83.7429 211.262 86.8377 214.337 86.8377 218.155C86.8377 221.942 83.7361 225.043 79.9592 225.043C76.1275 225.043 73.0669 221.949 73.0669 218.155C73.0738 214.337 76.1275 211.273 79.9523 211.262ZM79.9523 246.323C83.7361 246.323 86.8343 249.381 86.8377 253.212C86.8377 256.996 83.7429 260.094 79.9592 260.104C76.1275 260.104 73.0567 256.996 73.0669 253.209C73.0669 249.381 76.1275 246.323 79.9523 246.323Z" fill="white"/>
<path d="M42.0431 35.978C45.8679 35.978 48.9216 39.0352 48.9216 42.8566C48.9285 46.6506 45.8679 49.7454 42.0431 49.7454C38.2559 49.7454 35.1543 46.6506 35.1612 42.8566C35.1612 39.0352 38.2559 35.9712 42.0431 35.978ZM42.0534 71.0322C45.8679 71.0253 48.9216 74.0893 48.9285 77.9142C48.9285 81.7047 45.8679 84.8029 42.0431 84.8029C38.2559 84.7995 35.1543 81.7012 35.1612 77.9175C35.1543 74.0892 38.2559 71.0322 42.0534 71.0322ZM42.0431 106.079C45.8679 106.079 48.9216 109.167 48.9216 112.961C48.9285 116.796 45.8679 119.857 42.0431 119.854C38.2559 119.854 35.1543 116.779 35.1543 112.972C35.1543 109.178 38.2559 106.079 42.0431 106.079ZM42.0431 141.127C45.8679 141.134 48.9285 144.235 48.9285 148.022C48.9285 151.837 45.8679 154.908 42.0431 154.908C38.2559 154.908 35.1543 151.837 35.1543 148.022C35.1612 144.242 38.2559 141.134 42.0431 141.127ZM42.0431 176.181C45.8679 176.181 48.9216 179.282 48.9285 183.073C48.9216 186.888 45.8679 189.989 42.0431 189.989C38.2559 189.989 35.1612 186.888 35.1612 183.07C35.1612 179.282 38.2559 176.181 42.0431 176.181ZM42.0431 211.262C45.8679 211.262 48.9285 214.337 48.9285 218.155C48.9216 221.949 45.8679 225.043 42.0431 225.043C38.2559 225.043 35.1543 221.942 35.1543 218.155C35.1543 214.337 38.2559 211.273 42.0431 211.262ZM42.0431 246.323C45.8679 246.323 48.9216 249.38 48.9216 253.209C48.9216 256.999 45.8679 260.104 42.0431 260.094C38.2559 260.104 35.1612 256.999 35.1612 253.209C35.1543 249.38 38.2559 246.323 42.0431 246.323ZM42.0431 281.371C45.8679 281.371 48.9285 284.441 48.9216 288.263C48.9216 292.05 45.8679 295.152 42.0431 295.152C38.2559 295.155 35.1543 292.05 35.1543 288.259C35.1612 284.441 38.2559 281.384 42.0431 281.371Z" fill="white"/>
<path d="M7.64423 0.924328C11.4314 0.917473 14.5296 3.99173 14.5296 7.77201C14.5296 11.5968 11.4314 14.6916 7.64423 14.6916C3.82625 14.6916 0.751956 11.5968 0.755384 7.76858C0.755384 3.98487 3.8194 0.917473 7.64423 0.924328ZM7.64423 35.9716C11.4314 35.9716 14.5193 39.0356 14.5296 42.857C14.5296 46.651 11.4314 49.7458 7.64423 49.7458C3.8194 49.7458 0.751956 46.651 0.755384 42.857C0.755384 39.0356 3.8194 35.9716 7.64423 35.9716ZM7.64423 71.0326C11.4314 71.0326 14.5296 74.0897 14.5296 77.9146C14.5296 81.7017 11.4314 84.8033 7.64423 84.8033C3.82625 84.8033 0.755384 81.7016 0.755384 77.9179C0.755384 74.0897 3.8194 71.0326 7.64423 71.0326ZM7.64423 106.08C11.4314 106.08 14.5296 109.178 14.5296 112.972C14.5296 116.78 11.4416 119.854 7.64423 119.854C3.8194 119.854 0.755384 116.79 0.755384 112.962C0.762238 109.178 3.8194 106.073 7.64423 106.08ZM7.64423 141.134C11.4314 141.134 14.5193 144.229 14.5296 148.023C14.5296 151.837 11.4314 154.908 7.64423 154.908C3.8194 154.901 0.755384 151.837 0.755384 148.023C0.751956 144.236 3.8194 141.134 7.64423 141.134ZM7.64423 176.181C11.4314 176.181 14.5296 179.283 14.5296 183.101C14.5296 186.888 11.4314 189.955 7.64423 189.949C3.82625 189.955 0.755384 186.888 0.755384 183.108C0.755384 179.283 3.82625 176.181 7.64423 176.181ZM7.64423 211.263C11.4314 211.263 14.5296 214.337 14.5296 218.155C14.5193 221.949 11.4314 225.044 7.64423 225.044C3.8194 225.044 0.75538 221.949 0.751953 218.155C0.75538 214.344 3.8194 211.273 7.64423 211.263ZM7.64423 246.324C11.4314 246.324 14.5296 249.381 14.5364 253.209C14.5296 256.996 11.4314 260.105 7.64423 260.105C3.8194 260.095 0.751956 256.996 0.755384 253.209C0.755384 249.381 3.8194 246.324 7.64423 246.324ZM7.64423 281.371C11.4314 281.385 14.5296 284.442 14.5296 288.26C14.5296 292.085 11.4314 295.152 7.64423 295.152C3.82625 295.152 0.755384 292.078 0.755384 288.263C0.755384 284.442 3.8194 281.371 7.64423 281.371ZM7.64423 316.432C11.4314 316.418 14.5296 319.54 14.5296 323.314C14.5296 327.139 11.4314 330.203 7.64423 330.203C3.8194 330.203 0.755384 327.135 0.755384 323.314C0.755384 319.53 3.8194 316.432 7.64423 316.432Z" fill="white"/>
<path d="M186.368 158.686C190.186 158.686 193.261 161.777 193.247 165.561C193.247 169.382 190.193 172.456 186.368 172.446C182.578 172.456 179.479 169.382 179.479 165.561C179.479 161.777 182.578 158.686 186.368 158.686Z" fill="white"/>
</svg>
