<svg width="327" height="192" viewBox="0 0 327 192" fill="none" xmlns="http://www.w3.org/2000/svg">
<path d="M139.41 38.6472C139.41 34.8591 142.481 31.819 146.245 31.819C150.03 31.819 153.077 34.8523 153.077 38.6472C153.07 42.4013 150.03 45.4856 146.245 45.4788C142.488 45.4856 139.41 42.4013 139.41 38.6472ZM174.228 38.6472C174.217 34.8591 177.261 31.819 181.018 31.819C184.806 31.8122 187.884 34.8523 187.884 38.6472C187.877 42.4013 184.806 45.4856 181.022 45.4856C177.261 45.4856 174.217 42.4013 174.228 38.6472Z" fill="#FEDD5A"/>
<path d="M104.629 76.2601C104.629 72.4651 107.703 69.4319 111.457 69.4251C115.255 69.4251 118.295 72.4719 118.295 76.2601C118.295 80.0142 115.245 83.0848 111.467 83.0984C107.703 83.0848 104.629 80.021 104.629 76.2601ZM139.409 76.2601C139.409 72.4719 142.486 69.4251 146.244 69.4319C150.029 69.4319 153.075 72.4651 153.069 76.2601C153.075 80.0142 150.029 83.0848 146.244 83.0848C142.486 83.0848 139.409 80.0142 139.409 76.2601ZM174.216 76.2601C174.209 72.4651 177.26 69.4251 181.017 69.4251C184.805 69.4251 187.849 72.4719 187.849 76.2601C187.849 80.0142 184.805 83.0848 181.017 83.0984C177.26 83.0848 174.216 80.0142 174.216 76.2601ZM209 76.2601C209 72.4719 212.04 69.4319 215.835 69.4251C219.585 69.4319 222.663 72.4719 222.663 76.2601C222.663 80.021 219.592 83.0984 215.828 83.0984C212.04 83.0848 209 80.0142 209 76.2601Z" fill="#FEDD5A"/>
<path d="M69.8496 112.68C69.8564 108.926 72.9271 105.848 76.6846 105.848C80.4421 105.848 83.5161 108.926 83.5195 112.68C83.5161 116.475 80.4421 119.511 76.6846 119.521C72.9271 119.511 69.8564 116.475 69.8496 112.68ZM104.623 112.673C104.63 108.919 107.704 105.848 111.458 105.838C115.246 105.848 118.296 108.926 118.296 112.673C118.296 116.475 115.256 119.511 111.458 119.511C107.71 119.511 104.623 116.475 104.623 112.673ZM139.41 112.673C139.41 108.915 142.487 105.848 146.245 105.848C150.029 105.848 153.076 108.919 153.076 112.68C153.076 116.464 150.029 119.511 146.245 119.511C142.48 119.511 139.41 116.475 139.41 112.673ZM174.183 112.68C174.183 108.919 177.26 105.838 181.018 105.852C184.806 105.848 187.843 108.919 187.843 112.68C187.85 116.475 184.806 119.504 181.018 119.511C177.26 119.511 174.183 116.464 174.183 112.68ZM208.99 112.68C208.99 108.919 212.041 105.848 215.829 105.848C219.586 105.848 222.664 108.926 222.664 112.673C222.664 116.475 219.593 119.511 215.829 119.511C212.041 119.504 209 116.475 208.99 112.68ZM243.777 112.68C243.777 108.926 246.81 105.852 250.612 105.848C254.366 105.848 257.44 108.919 257.45 112.673C257.45 116.475 254.366 119.521 250.609 119.511C246.81 119.511 243.777 116.475 243.777 112.68Z" fill="#FEDD5A"/>
<path d="M35.0752 150.292C35.0752 146.497 38.1085 143.467 41.9 143.467C45.6643 143.46 48.7349 146.497 48.7349 150.292C48.7349 154.049 45.6643 157.127 41.9 157.12C38.1085 157.12 35.0684 154.049 35.0752 150.292ZM69.8553 150.282C69.8485 146.497 72.8885 143.467 76.6835 143.46C80.4444 143.46 83.5184 146.497 83.5184 150.292C83.515 154.049 80.4409 157.127 76.6868 157.12C72.8885 157.127 69.8553 154.049 69.8553 150.282ZM104.629 150.292C104.629 146.497 107.692 143.467 111.457 143.467C115.262 143.46 118.298 146.497 118.295 150.292C118.295 154.049 115.245 157.127 111.467 157.127C107.703 157.127 104.629 154.049 104.629 150.292ZM139.402 150.292C139.409 146.497 142.486 143.46 146.244 143.46C150.028 143.46 153.075 146.497 153.075 150.292C153.075 154.049 150.028 157.127 146.244 157.127C142.493 157.12 139.409 154.049 139.402 150.292ZM174.182 150.292C174.182 146.497 177.259 143.467 181.02 143.46C184.805 143.467 187.882 146.497 187.882 150.292C187.882 154.049 184.805 157.12 181.017 157.12C177.259 157.12 174.182 154.049 174.182 150.292ZM208.989 150.292C208.989 146.497 212.039 143.46 215.828 143.46C219.592 143.467 222.662 146.497 222.662 150.292C222.662 154.049 219.585 157.127 215.828 157.127C212.039 157.127 208.999 154.049 208.989 150.292ZM243.776 150.292C243.776 146.497 246.809 143.467 250.608 143.467C254.369 143.467 257.449 146.497 257.439 150.292C257.449 154.049 254.369 157.12 250.608 157.12C246.809 157.127 243.776 154.049 243.776 150.292ZM278.549 150.292C278.549 146.497 281.596 143.46 285.388 143.467C289.145 143.467 292.223 146.497 292.223 150.292C292.226 154.049 289.145 157.127 285.384 157.127C281.596 157.12 278.563 154.049 278.549 150.292Z" fill="black"/>
<path d="M0.29591 184.422C0.289109 180.665 3.33933 177.591 7.09005 177.591C10.885 177.591 13.9556 180.665 13.9556 184.422C13.9556 188.21 10.885 191.261 7.08665 191.257C3.33253 191.257 0.289109 188.217 0.29591 184.422ZM35.0692 184.422C35.0692 180.665 38.1092 177.601 41.9008 177.591C45.6651 177.591 48.7357 180.665 48.7357 184.422C48.7357 188.217 45.6651 191.261 41.9008 191.257C38.1092 191.257 35.0692 188.217 35.0692 184.422ZM69.8561 184.422C69.8561 180.665 72.8893 177.591 76.6842 177.591C80.4418 177.591 83.5192 180.665 83.5192 184.422C83.5192 188.21 80.4417 191.257 76.6876 191.257C72.8892 191.257 69.8561 188.217 69.8561 184.422ZM104.629 184.422C104.629 180.665 107.703 177.591 111.468 177.591C115.246 177.591 118.296 180.655 118.296 184.422C118.296 188.217 115.256 191.257 111.457 191.257C107.703 191.251 104.623 188.217 104.629 184.422ZM139.409 184.422C139.409 180.665 142.48 177.601 146.244 177.591C150.029 177.591 153.076 180.665 153.076 184.422C153.069 188.217 150.029 191.257 146.244 191.257C142.487 191.261 139.409 188.217 139.409 184.422ZM174.183 184.422C174.183 180.665 177.26 177.591 181.048 177.591C184.806 177.591 187.849 180.665 187.842 184.422C187.849 188.21 184.806 191.257 181.055 191.257C177.26 191.257 174.183 188.21 174.183 184.422ZM208.99 184.422C208.99 180.665 212.04 177.591 215.828 177.591C219.593 177.601 222.663 180.665 222.663 184.422C222.663 188.217 219.593 191.257 215.828 191.261C212.047 191.257 209 188.217 208.99 184.422ZM243.777 184.422C243.777 180.665 246.81 177.591 250.608 177.584C254.366 177.591 257.45 180.665 257.45 184.422C257.44 188.217 254.366 191.261 250.608 191.257C246.81 191.257 243.777 188.217 243.777 184.422ZM278.55 184.422C278.564 180.665 281.597 177.591 285.385 177.591C289.18 177.591 292.223 180.665 292.223 184.422C292.223 188.21 289.173 191.257 285.388 191.257C281.597 191.257 278.55 188.217 278.55 184.422ZM313.337 184.422C313.323 180.665 316.421 177.591 320.165 177.591C323.96 177.591 327 180.665 327 184.422C327 188.217 323.957 191.257 320.165 191.257C316.411 191.257 313.337 188.217 313.337 184.422Z" fill="black"/>
<path d="M156.823 7.09445C156.823 3.30632 159.89 0.256073 163.645 0.269675C167.436 0.269675 170.486 3.29952 170.476 7.09445C170.486 10.8554 167.436 13.9294 163.645 13.9294C159.89 13.9294 156.823 10.8554 156.823 7.09445Z" fill="#FEDD5A"/>
</svg>
