<svg width="26" height="26" viewBox="0 0 26 26" fill="none" xmlns="http://www.w3.org/2000/svg">
<g clip-path="url(#clip0)">
<path d="M22.7207 25.584H3.9707C2.2457 25.584 0.845703 24.184 0.845703 22.459V3.70898C0.845703 1.98398 2.2457 0.583984 3.9707 0.583984H22.7207C24.4457 0.583984 25.8457 1.98398 25.8457 3.70898V22.459C25.8457 24.184 24.4457 25.584 22.7207 25.584Z" fill="white"/>
<path d="M10.4512 19.4363C16.3449 19.4363 19.5699 14.5488 19.5699 10.3176C19.5699 10.1801 19.5699 10.0426 19.5637 9.90508C20.1887 9.45508 20.7324 8.88633 21.1637 8.24258C20.5887 8.49883 19.9699 8.66758 19.3199 8.74883C19.9824 8.35508 20.4887 7.72383 20.7324 6.97383C20.1137 7.34258 19.4262 7.60508 18.6949 7.74883C18.1074 7.12383 17.2762 6.73633 16.3574 6.73633C14.5887 6.73633 13.1512 8.17383 13.1512 9.94258C13.1512 10.1926 13.1824 10.4363 13.2324 10.6738C10.5699 10.5426 8.20742 9.26133 6.62617 7.32383C6.35117 7.79883 6.19492 8.34883 6.19492 8.93633C6.19492 10.0488 6.76367 11.0301 7.61992 11.6051C7.09492 11.5863 6.60117 11.4426 6.16992 11.2051V11.2488C6.16992 12.7988 7.27617 14.0988 8.73867 14.3926C8.46992 14.4676 8.18867 14.5051 7.89492 14.5051C7.68867 14.5051 7.48867 14.4863 7.29492 14.4488C7.70117 15.7238 8.88867 16.6488 10.2887 16.6738C9.18867 17.5363 7.80742 18.0488 6.30742 18.0488C6.05117 18.0488 5.79492 18.0363 5.54492 18.0051C6.95742 18.9051 8.64492 19.4363 10.4512 19.4363Z" fill="black"/>
</g>
<defs>
<clipPath id="clip0">
<rect width="25" height="25" fill="white" transform="translate(0.845703 0.583984)"/>
</clipPath>
</defs>
</svg>
