<svg width="25" height="26" viewBox="0 0 25 26" fill="none" xmlns="http://www.w3.org/2000/svg">
<g clip-path="url(#clip0)">
<path fill-rule="evenodd" clip-rule="evenodd" d="M21.9456 0.319336C23.6314 0.319336 25 1.68799 25 3.37373V22.2649C25 23.9507 23.6313 25.3193 21.9456 25.3193H3.05439C1.36865 25.3193 0 23.9507 0 22.2649V3.37373C0 1.68799 1.3686 0.319336 3.05439 0.319336H21.9456V0.319336ZM20.9218 8.89502C20.7197 8.13872 20.1241 7.54312 19.3678 7.34102C17.9968 6.97363 12.5 6.97363 12.5 6.97363C12.5 6.97363 7.00317 6.97363 5.63218 7.34102C4.87603 7.54312 4.28032 8.13872 4.07817 8.89502C3.71094 10.2659 3.71094 13.1261 3.71094 13.1261C3.71094 13.1261 3.71094 15.9862 4.07817 17.3569C4.28032 18.1132 4.87603 18.709 5.63218 18.9111C7.00317 19.2783 12.5 19.2783 12.5 19.2783C12.5 19.2783 17.9968 19.2783 19.3678 18.9111C20.1241 18.709 20.7197 18.1132 20.9218 17.3569C21.2891 15.9862 21.2891 13.1261 21.2891 13.1261C21.2891 13.1261 21.2891 10.2659 20.9218 8.89502ZM10.7421 15.7628V10.4893L15.309 13.1261L10.7421 15.7628Z" fill="white"/>
</g>
<defs>
<clipPath id="clip0">
<rect width="25" height="25" fill="white" transform="translate(0 0.319336)"/>
</clipPath>
</defs>
</svg>
