<svg width="609" height="92" viewBox="0 0 609 92" fill="none" xmlns="http://www.w3.org/2000/svg">
<path d="M304.681 91.4395C304.514 91.4395 304.349 91.4267 304.182 91.4267C304.177 91.4267 304.172 91.4267 304.165 91.4267C304.158 91.4267 304.153 91.4267 304.148 91.4267C304.142 91.4267 304.136 91.4267 304.13 91.4267C304.124 91.4267 304.117 91.4139 304.113 91.4267C303.304 91.3885 302.498 91.2738 301.709 91.0826C301.708 91.0826 301.706 91.0826 301.706 91.0826C301.701 91.0826 301.692 91.0698 301.688 91.0698C301.681 91.0698 301.676 91.0698 301.666 91.0698C301.66 91.0698 301.654 91.0698 301.648 91.0698C301.648 91.0698 301.646 91.0698 301.645 91.0698C299.664 90.5728 297.79 89.5914 296.236 88.1257L231.516 27.5742L166.76 88.1512C164.367 90.3944 161.208 91.4777 158.14 91.4395C158.138 91.4395 158.138 91.4395 158.138 91.4395C158.13 91.4395 158.122 91.4395 158.118 91.4395C158.111 91.4395 158.104 91.4267 158.099 91.4267C158.094 91.4267 158.087 91.4267 158.08 91.4267C158.067 91.4267 158.067 91.4267 158.06 91.4267C158.059 91.4267 158.059 91.4267 158.058 91.4267C157.218 91.4139 156.38 91.312 155.558 91.1208C155.559 91.1208 155.548 91.1208 155.541 91.1208C155.536 91.1208 155.53 91.1208 155.525 91.1081C155.519 91.1081 155.514 91.1081 155.508 91.1081C153.485 90.6365 151.566 89.6679 149.973 88.1895C149.963 88.1767 149.953 88.164 149.943 88.1512L85.1853 27.5742L20.4296 88.1512C15.6853 92.5992 8.07187 92.51 3.43014 87.9855C1.1396 85.7424 -0.00159832 82.8365 1.68008e-06 79.9434C0.00160168 76.9611 1.20827 73.9788 3.61201 71.7356L76.7776 3.28217C79.1697 1.03905 82.2812 -0.0570145 85.3979 0.00671387C85.3989 0.00671387 85.3989 0.00671387 85.3989 0.00671387C85.4072 0.00671387 85.4161 0.00671387 85.4187 0.00671387C85.4255 0.00671387 85.4301 0.00671387 85.438 0.00671387C85.4427 0.00671387 85.45 0.00671387 85.4572 0.00671387C85.4625 0.00671387 85.4708 0.00671387 85.4765 0.00671387C85.4781 0.00671387 85.4781 0.00671387 85.4792 0.00671387C86.3187 0.0322037 87.1568 0.134186 87.9792 0.312614C87.9865 0.312614 87.9963 0.32534 88.0031 0.32534C88.0099 0.32534 88.0187 0.32534 88.0255 0.32534C88.0265 0.32534 88.0276 0.32534 88.0287 0.32534C90.0531 0.796906 91.9729 1.77827 93.5651 3.25669C93.5667 3.25669 93.5687 3.25669 93.5687 3.25669C93.5776 3.26944 93.5859 3.26942 93.5943 3.28217L158.352 63.8592L223.107 3.28217C223.116 3.26942 223.125 3.26944 223.134 3.25669C223.14 3.25669 223.147 3.24397 223.153 3.24397C223.159 3.23122 223.164 3.2312 223.169 3.21845C223.174 3.21845 223.182 3.21848 223.188 3.20573C223.188 3.20573 223.188 3.20573 223.19 3.20573C225.485 1.1028 228.435 0.0322037 231.391 0.00671387C232.383 -0.0187759 233.4 0.108688 234.379 0.338097C234.383 0.338097 234.391 0.338097 234.396 0.338097C234.402 0.338097 234.406 0.338097 234.411 0.338097C234.417 0.338097 234.424 0.338074 234.429 0.350822C236.429 0.822388 238.324 1.79102 239.901 3.25669C239.909 3.26944 239.917 3.26942 239.925 3.28217L304.68 63.8592L369.437 3.28217C369.441 3.28217 369.445 3.26945 369.45 3.26945C369.457 3.26945 369.462 3.25669 369.468 3.25669C369.472 3.24394 369.477 3.24397 369.481 3.24397C371.937 0.962608 375.154 -0.0952454 378.325 0.00671387H378.326C378.332 0.0194626 378.34 0.0194702 378.348 0.0194702C378.356 0.0194702 378.362 0.0194702 378.368 0.0194702C378.373 0.0194702 378.38 0.0194702 378.388 0.0194702C378.39 0.0194702 378.392 0.0194702 378.394 0.0194702C379.245 0.0577087 380.093 0.172394 380.922 0.389061C380.928 0.389061 380.933 0.389061 380.938 0.389061C380.942 0.389061 380.949 0.389061 380.954 0.389061C380.96 0.389061 380.965 0.389069 380.97 0.401817C380.974 0.401817 380.977 0.401817 380.985 0.401817C382.921 0.898872 384.75 1.8675 386.277 3.30769L451.009 63.8592L515.765 3.28217C515.77 3.28217 515.774 3.26945 515.78 3.26945C515.806 3.24396 515.833 3.21845 515.861 3.19296C518.154 1.09003 521.098 0.0322037 524.049 0.00671387C525.038 -0.00603485 526.01 0.0959473 526.966 0.312614C526.978 0.312614 526.98 0.312592 526.984 0.32534C526.99 0.32534 526.994 0.32534 527 0.32534C529.05 0.796906 530.997 1.79103 532.604 3.30769L605.748 71.7356C609.238 74.9984 610.314 79.9562 608.47 84.2895C606.624 88.61 602.224 91.4395 597.338 91.4395H597.082C593.061 91.4395 589.501 89.5532 587.32 86.6473L524.174 27.5742L459.418 88.1512C457.106 90.3179 454.114 91.414 451.117 91.4395C450.113 91.4395 449.084 91.3247 448.092 91.0953C448.085 91.0953 448.086 91.0953 448.07 91.0826C448.064 91.0826 448.057 91.0826 448.05 91.0826C448.045 91.0826 448.036 91.0826 448.03 91.0826C448.029 91.0826 448.028 91.0826 448.026 91.0826C446.056 90.5983 444.188 89.6297 442.632 88.1895C442.621 88.1767 442.61 88.164 442.6 88.1512L377.845 27.5742L313.088 88.1512C313.085 88.164 313.08 88.164 313.074 88.164C313.069 88.1767 313.062 88.1767 313.057 88.1895C313.053 88.1895 313.048 88.1895 313.045 88.2022C310.712 90.3561 307.696 91.4395 304.681 91.4395Z" fill="black"/>
</svg>
